<?xml version="1.0" encoding="UTF-8"?>
<svg xmlns="http://www.w3.org/2000/svg" width="61" height="61" viewBox="0 0 61 61" fill="none">
  <path d="M17.2474 44.4162C17.3884 44.4177 17.5282 44.3905 17.6583 44.3364C17.7885 44.2822 17.9063 44.2022 18.0046 44.1013C18.2025 43.9026 18.3136 43.6336 18.3136 43.3532C18.3136 43.0727 18.2025 42.8037 18.0046 42.6051C16.0032 40.6038 14.5235 38.1421 13.695 35.4357C12.8666 32.7294 12.7148 29.8611 13.2529 27.0825C13.7911 24.3038 15.0027 21.6996 16.7817 19.4983C18.5606 17.2969 20.8525 15.5656 23.4563 14.4563C23.587 14.4036 23.706 14.3254 23.8062 14.2263C23.9063 14.1271 23.9857 14.009 24.0397 13.8788C24.0937 13.7486 24.1211 13.6089 24.1205 13.4679C24.1198 13.327 24.0911 13.1876 24.0359 13.0579C23.9807 12.9282 23.9002 12.8108 23.7991 12.7126C23.698 12.6143 23.5783 12.5373 23.4471 12.4859C23.3158 12.4345 23.1757 12.4097 23.0347 12.4132C22.8938 12.4166 22.755 12.4481 22.6264 12.5058C19.7022 13.7491 17.1279 15.6911 15.1294 18.1614C13.1308 20.6318 11.7692 23.5549 11.164 26.6743C10.5588 29.7936 10.7285 33.0139 11.6582 36.0523C12.5879 39.0908 14.2492 41.8546 16.4963 44.1013C16.5941 44.2012 16.711 44.2806 16.84 44.3347C16.969 44.3888 17.1075 44.4165 17.2474 44.4162Z" fill="white" stroke="white" stroke-width="0.8"></path>
  <path d="M57.5918 48.0447L52.6671 43.1139C52.4639 42.9147 52.1899 42.8044 51.9053 42.8072C51.6207 42.8101 51.349 42.9259 51.1497 43.1291C50.9505 43.3323 50.8402 43.6063 50.8431 43.8909C50.8459 44.1755 50.9617 44.4472 51.1649 44.6465L54.1936 47.6752H44.314C44.0328 47.6752 43.7632 47.7868 43.5644 47.9856C43.3656 48.1844 43.2539 48.4541 43.2539 48.7352C43.2539 49.0164 43.3656 49.286 43.5644 49.4848C43.7632 49.6836 44.0328 49.7953 44.314 49.7953H54.3511L51.1709 52.9754C51.0229 53.1245 50.9223 53.314 50.8816 53.52C50.8409 53.7261 50.862 53.9396 50.9422 54.1338C51.0225 54.3279 51.1583 54.494 51.3326 54.6112C51.5069 54.7284 51.712 54.7916 51.9221 54.7926C52.204 54.7899 52.4736 54.6768 52.6732 54.4776L57.5979 49.553C57.6973 49.454 57.7761 49.3362 57.8296 49.2065C57.8832 49.0769 57.9105 48.9379 57.9099 48.7976C57.9094 48.6572 57.881 48.5185 57.8264 48.3892C57.7717 48.26 57.692 48.1429 57.5918 48.0447V48.0447Z" fill="white" stroke="white" stroke-width="0.8"></path>
  <path d="M48.8983 35.6209C50.2363 35.4786 51.4976 34.9261 52.5093 34.0391C53.5211 33.152 54.2338 31.9738 54.5499 30.6659C54.6135 30.3939 54.5672 30.1077 54.421 29.8696C54.2748 29.6315 54.0405 29.4608 53.7691 29.3945C53.4977 29.3282 53.2111 29.3718 52.9716 29.5158C52.7321 29.6597 52.5592 29.8924 52.4903 30.1632C52.2611 31.1247 51.7179 31.9824 50.9468 32.6007C50.1756 33.2191 49.2203 33.5628 48.232 33.5776C47.2436 33.5924 46.2785 33.2774 45.4892 32.6824C44.6998 32.0875 44.1313 31.2464 43.8733 30.2922C43.6154 29.338 43.6828 28.325 44.0649 27.4133C44.447 26.5017 45.1219 25.7434 45.9832 25.2582C46.8444 24.7731 47.8427 24.5887 48.8204 24.7343C49.7981 24.88 50.6994 25.3472 51.3818 26.0623L49.0013 28.4368L48.3955 27.5464C48.2237 27.3481 47.9843 27.2206 47.7239 27.1885C47.4634 27.1565 47.2003 27.2222 46.9855 27.3729C46.7707 27.5237 46.6195 27.7487 46.561 28.0045C46.5026 28.2604 46.5411 28.5288 46.6692 28.7578L48.0078 30.7144C48.0972 30.84 48.2128 30.9447 48.3467 31.0211C48.4806 31.0974 48.6296 31.1437 48.7832 31.1566H48.8983C49.1775 31.1552 49.445 31.0442 49.6433 30.8477L55.9976 24.4692C56.1968 24.27 56.3087 23.9998 56.3087 23.7181C56.3087 23.4364 56.1968 23.1662 55.9976 22.967C55.7984 22.7677 55.5282 22.6558 55.2465 22.6558C54.9647 22.6558 54.6945 22.7677 54.4953 22.967L52.8962 24.5661C52.2851 23.9369 51.5546 23.436 50.7474 23.0927C49.9403 22.7495 49.0727 22.5708 48.1956 22.5672H47.9897C46.4855 19.1284 44.0137 16.2014 40.8753 14.1429C37.7369 12.0843 34.0674 10.983 30.3141 10.9733L33.4337 7.8537C33.5323 7.75546 33.6107 7.63876 33.6642 7.51025C33.7177 7.38174 33.7454 7.24394 33.7457 7.10473C33.746 6.96551 33.7189 6.8276 33.6658 6.69888C33.6128 6.57015 33.535 6.45313 33.4367 6.35449C33.3385 6.25586 33.2218 6.17753 33.0933 6.124C32.9648 6.07046 32.827 6.04276 32.6878 6.04248C32.5485 6.0422 32.4106 6.06934 32.2819 6.12236C32.1532 6.17537 32.0362 6.25322 31.9375 6.35147L27.0128 11.2822C26.9134 11.3798 26.8344 11.4962 26.7805 11.6246C26.7265 11.7531 26.6988 11.891 26.6988 12.0303C26.6988 12.1696 26.7265 12.3075 26.7805 12.436C26.8344 12.5644 26.9134 12.6808 27.0128 12.7784L31.9375 17.7031C32.1363 17.9033 32.4065 18.0166 32.6886 18.018C32.8982 18.0158 33.1024 17.9518 33.2758 17.8342C33.4492 17.7165 33.5841 17.5503 33.6636 17.3564C33.7431 17.1625 33.7637 16.9495 33.7228 16.744C33.6819 16.5385 33.5814 16.3495 33.4337 16.2008L30.3263 13.0873C33.5905 13.0971 36.7847 14.0344 39.5367 15.7901C42.2886 17.5457 44.4849 20.0473 45.8696 23.0033C44.5582 23.5038 43.4425 24.4128 42.6874 25.596C41.9323 26.7793 41.5778 28.174 41.6762 29.5743C41.7747 30.9745 42.3209 32.3059 43.2342 33.3718C44.1474 34.4378 45.3793 35.1817 46.7479 35.4937C45.6583 39.0244 43.4654 42.1127 40.4913 44.3052C37.5171 46.4977 33.9183 47.6788 30.2233 47.6752H13.6926V44.5738C13.6926 44.2926 13.5809 44.023 13.3821 43.8242C13.1833 43.6254 12.9137 43.5137 12.6325 43.5137H4.32177C4.04062 43.5137 3.771 43.6254 3.5722 43.8242C3.3734 44.023 3.26172 44.2926 3.26172 44.5738V52.8845C3.26172 53.1657 3.3734 53.4353 3.5722 53.6341C3.771 53.8329 4.04062 53.9446 4.32177 53.9446H12.6325C12.9137 53.9446 13.1833 53.8329 13.3821 53.6341C13.5809 53.4353 13.6926 53.1657 13.6926 52.8845V49.7892H30.2233C34.4561 49.7905 38.573 48.4063 41.9452 45.8479C45.3174 43.2895 47.7594 39.6976 48.8983 35.6209V35.6209ZM11.5725 51.8245H5.38181V45.6338H11.5725V51.8245Z" fill="white" stroke="white" stroke-width="0.8"></path>
</svg>
