<?xml version="1.0" encoding="UTF-8"?>
<svg xmlns="http://www.w3.org/2000/svg" width="61" height="61" viewBox="0 0 61 61" fill="none">
  <g clip-path="url(#clip0_1383_47561)">
    <mask id="mask0_1383_47561" style="mask-type:alpha" maskUnits="userSpaceOnUse" x="5" y="5" width="57" height="56">
      <path d="M5.41016 5.41095H39.1602V30.4109L54.7852 23.5359L61.6602 57.9109L5.41016 60.4109V5.41095Z" fill="#D9D9D9"></path>
    </mask>
    <g mask="url(#mask0_1383_47561)">
      <path d="M30.4102 26.4109C23.8355 26.4109 18.6596 25.4076 14.7916 23.5028C10.7407 21.5079 9.41016 19.5718 9.41016 17.9109C9.41016 16.2041 10.7485 14.2587 14.7861 12.2905C18.6558 10.4043 23.8338 9.41095 30.4102 9.41095C36.9865 9.41095 42.1645 10.4043 46.0342 12.2905C50.0719 14.2587 51.4102 16.2041 51.4102 17.9109C51.4102 19.5718 50.0796 21.5079 46.0287 23.5028C42.1607 25.4076 36.9848 26.4109 30.4102 26.4109ZM30.4102 38.9109C24.4732 38.9109 19.4048 38.0159 15.1681 36.2737C10.7643 34.4627 9.41016 32.6049 9.41016 31.0359V30.2472C11.1187 31.5325 13.1898 32.5645 15.5921 33.3652C17.9997 34.1678 20.5497 34.7502 23.2393 35.116C25.8925 35.4769 28.2849 35.6609 30.4102 35.6609C32.5761 35.6609 34.979 35.477 37.6139 35.1158C40.2789 34.7504 42.8139 34.1796 45.2167 33.4003C47.6227 32.62 49.698 31.5975 51.4102 30.3097V31.0359C51.4102 32.6049 50.056 34.4627 45.6522 36.2737C41.4155 38.0159 36.3471 38.9109 30.4102 38.9109ZM30.4102 51.4109C24.4732 51.4109 19.4048 50.5159 15.1681 48.7737C10.7643 46.9627 9.41016 45.1049 9.41016 43.5359V42.7472C11.1187 44.0325 13.1898 45.0645 15.5921 45.8652C17.9997 46.6678 20.5497 47.2502 23.2393 47.616C25.8925 47.9769 28.2849 48.1609 30.4102 48.1609C32.5761 48.1609 34.979 47.977 37.6139 47.6158C40.2789 47.2504 42.8139 46.6796 45.2167 45.9003C47.6227 45.1199 49.698 44.0975 51.4102 42.8097V43.5359C51.4102 45.1049 50.056 46.9627 45.6522 48.7737C41.4155 50.5159 36.3471 51.4109 30.4102 51.4109Z" stroke="white" stroke-width="3"></path>
    </g>
    <path d="M43.8477 24.786C43.2643 24.786 42.7539 24.5672 42.3164 24.1297C41.8789 23.6922 41.6602 23.1818 41.6602 22.5985V15.0985C41.6602 14.5151 41.8997 14.0047 42.3789 13.5672C42.8581 13.1297 43.4518 12.911 44.1602 12.911V10.0984C44.1602 8.80678 44.6185 7.70262 45.5352 6.78595C46.4518 5.86928 47.556 5.41095 48.8477 5.41095C50.1393 5.41095 51.2435 5.86928 52.1602 6.78595C53.0768 7.70262 53.5352 8.80678 53.5352 10.0984V12.911C54.2435 12.911 54.8372 13.1297 55.3164 13.5672C55.7956 14.0047 56.0352 14.5151 56.0352 15.0985V22.5985C56.0352 23.1818 55.8164 23.6922 55.3789 24.1297C54.9414 24.5672 54.431 24.786 53.8477 24.786H43.8477ZM46.0352 12.911H51.6602V10.0984C51.6602 9.30678 51.3893 8.64012 50.8477 8.09845C50.306 7.55678 49.6393 7.28595 48.8477 7.28595C48.056 7.28595 47.3893 7.55678 46.8477 8.09845C46.306 8.64012 46.0352 9.30678 46.0352 10.0984V12.911Z" fill="white"></path>
  </g>
  <defs>
    <clipPath id="clip0_1383_47561">
      <rect width="60" height="60" fill="white" transform="translate(0.410156 0.41095)"></rect>
    </clipPath>
  </defs>
</svg>
