<?xml version="1.0" encoding="UTF-8"?>
<svg xmlns="http://www.w3.org/2000/svg" width="61" height="61" viewBox="0 0 61 61" fill="none">
  <g clip-path="url(#clip0_1383_47551)">
    <path d="M0.410156 55.4109V52.0984C0.410156 50.4734 1.28516 49.161 3.03516 48.161C4.78516 47.161 7.03516 46.6609 9.78516 46.6609C10.3268 46.6609 10.8268 46.6714 11.2852 46.6922C11.7435 46.713 12.2018 46.7651 12.6602 46.8485C12.3268 47.5568 12.0768 48.2755 11.9102 49.0047C11.7435 49.7339 11.6602 50.5151 11.6602 51.3484V55.4109H0.410156ZM15.4102 55.4109V51.3484C15.4102 48.6401 16.7956 46.4526 19.5664 44.7859C22.3372 43.1193 25.9518 42.2859 30.4102 42.2859C34.9102 42.2859 38.5352 43.1193 41.2852 44.7859C44.0352 46.4526 45.4102 48.6401 45.4102 51.3484V55.4109H15.4102ZM49.1602 55.4109V51.3484C49.1602 50.5151 49.0872 49.7339 48.9414 49.0047C48.7956 48.2755 48.556 47.5568 48.2227 46.8485C48.681 46.7651 49.1393 46.713 49.5977 46.6922C50.056 46.6714 50.5352 46.6609 51.0352 46.6609C53.8268 46.6609 56.0872 47.161 57.8164 48.161C59.5456 49.161 60.4102 50.4734 60.4102 52.0984V55.4109H49.1602ZM30.4102 46.0359C27.0768 46.0359 24.3685 46.536 22.2852 47.536C20.2018 48.536 19.1602 49.8068 19.1602 51.3484V51.6609H41.6602V51.286C41.6602 49.786 40.6289 48.536 38.5664 47.536C36.5039 46.536 33.7852 46.0359 30.4102 46.0359ZM9.78516 44.7859C8.57682 44.7859 7.54557 44.3589 6.69141 43.5047C5.83724 42.6505 5.41016 41.6193 5.41016 40.4109C5.41016 39.2026 5.83724 38.1714 6.69141 37.3172C7.54557 36.463 8.57682 36.0359 9.78516 36.0359C10.9935 36.0359 12.0247 36.463 12.8789 37.3172C13.7331 38.1714 14.1602 39.2026 14.1602 40.4109C14.1602 41.6193 13.7331 42.6505 12.8789 43.5047C12.0247 44.3589 10.9935 44.7859 9.78516 44.7859ZM51.0352 44.7859C49.8268 44.7859 48.7956 44.3589 47.9414 43.5047C47.0872 42.6505 46.6602 41.6193 46.6602 40.4109C46.6602 39.2026 47.0872 38.1714 47.9414 37.3172C48.7956 36.463 49.8268 36.0359 51.0352 36.0359C52.2435 36.0359 53.2747 36.463 54.1289 37.3172C54.9831 38.1714 55.4102 39.2026 55.4102 40.4109C55.4102 41.6193 54.9831 42.6505 54.1289 43.5047C53.2747 44.3589 52.2435 44.7859 51.0352 44.7859ZM30.4102 40.4109C28.3268 40.4109 26.556 39.6818 25.0977 38.2234C23.6393 36.7651 22.9102 34.9943 22.9102 32.9109C22.9102 30.7859 23.6393 29.0047 25.0977 27.5672C26.556 26.1297 28.3268 25.4109 30.4102 25.4109C32.5352 25.4109 34.3164 26.1297 35.7539 27.5672C37.1914 29.0047 37.9102 30.7859 37.9102 32.9109C37.9102 34.9943 37.1914 36.7651 35.7539 38.2234C34.3164 39.6818 32.5352 40.4109 30.4102 40.4109ZM30.4102 29.1609C29.3685 29.1609 28.4831 29.5151 27.7539 30.2235C27.0247 30.9318 26.6602 31.8276 26.6602 32.9109C26.6602 33.9526 27.0247 34.838 27.7539 35.5672C28.4831 36.2964 29.3685 36.6609 30.4102 36.6609C31.4935 36.6609 32.3893 36.2964 33.0977 35.5672C33.806 34.838 34.1602 33.9526 34.1602 32.9109C34.1602 31.8276 33.806 30.9318 33.0977 30.2235C32.3893 29.5151 31.4935 29.1609 30.4102 29.1609Z" fill="white"></path>
    <path d="M3.59766 35.1609C2.51432 33.3693 1.71224 31.5672 1.19141 29.7547C0.670573 27.9422 0.410156 26.161 0.410156 24.411C0.410156 19.8276 2.01432 15.9318 5.22266 12.7235C8.43099 9.51512 12.3268 7.91095 16.9102 7.91095C19.5352 7.91095 22.0247 8.45262 24.3789 9.53595C26.7331 10.6193 28.7435 12.0985 30.4102 13.9735C32.0768 12.0985 34.0872 10.6193 36.4414 9.53595C38.7956 8.45262 41.2852 7.91095 43.9102 7.91095C48.4935 7.91095 52.3893 9.51512 55.5977 12.7235C58.806 15.9318 60.4102 19.8276 60.4102 24.411C60.4102 26.161 60.1497 27.9318 59.6289 29.7235C59.1081 31.5151 58.306 33.3068 57.2227 35.0984C56.806 34.5984 56.3372 34.1714 55.8164 33.8172C55.2956 33.463 54.7435 33.1609 54.1602 32.9109C54.9935 31.4526 55.6185 30.0151 56.0352 28.5984C56.4518 27.1818 56.6602 25.786 56.6602 24.411C56.6602 20.8693 55.4206 17.8589 52.9414 15.3797C50.4622 12.9005 47.4518 11.6609 43.9102 11.6609C41.6185 11.6609 39.3581 12.338 37.1289 13.6922C34.8997 15.0464 32.6602 17.0984 30.4102 19.8484C28.1602 17.0984 25.9206 15.0464 23.6914 13.6922C21.4622 12.338 19.2018 11.6609 16.9102 11.6609C13.3685 11.6609 10.3581 12.9005 7.87891 15.3797C5.39974 17.8589 4.16016 20.8693 4.16016 24.411C4.16016 25.786 4.36849 27.1818 4.78516 28.5984C5.20182 30.0151 5.82682 31.4526 6.66016 32.9109C6.07682 33.1609 5.52474 33.4734 5.00391 33.8484C4.48307 34.2234 4.01432 34.6609 3.59766 35.1609Z" fill="white"></path>
  </g>
  <defs>
    <clipPath id="clip0_1383_47551">
      <rect width="60" height="60" fill="white" transform="translate(0.410156 0.41095)"></rect>
    </clipPath>
  </defs>
</svg>
