<?xml version="1.0" encoding="UTF-8"?>
<svg xmlns="http://www.w3.org/2000/svg" width="57" height="62" viewBox="0 0 57 62" fill="none">
  <path d="M22.6436 24.802C22.3156 24.3398 22.1268 23.7828 22.1268 23.1814C22.1268 22.7794 22.2129 22.3996 22.3653 22.0545C22.5939 21.5354 22.9816 21.0923 23.4654 20.779C23.9524 20.4656 24.5323 20.282 25.1618 20.282C25.5826 20.282 25.9802 20.3643 26.3414 20.5099C26.8847 20.7283 27.3486 21.0986 27.6766 21.5608C28.008 22.0229 28.1935 22.5768 28.1935 23.1782C28.1935 23.5802 28.1107 23.9632 27.955 24.3082C27.7263 24.8241 27.3387 25.2704 26.8549 25.5838C26.3712 25.8971 25.7913 26.0775 25.1585 26.0775C24.741 26.0775 24.3401 25.9984 23.9789 25.8496C23.4388 25.6312 22.9717 25.2641 22.6436 24.802ZM26.8152 26.9195C27.5739 26.6093 28.2267 26.0965 28.6839 25.4508C29.1411 24.8051 29.4062 24.017 29.4062 23.1814C29.4062 22.6243 29.2869 22.0862 29.0716 21.6051C28.7502 20.8771 28.2134 20.2567 27.5375 19.8199C26.8616 19.3831 26.0398 19.1267 25.1618 19.1267C24.5786 19.1267 24.0187 19.2407 23.5084 19.4464C22.743 19.7534 22.0969 20.2694 21.6397 20.9151C21.1824 21.5608 20.9141 22.3457 20.9141 23.1814C20.9141 23.7384 21.0333 24.2765 21.2454 24.7608C21.5701 25.4888 22.1069 26.1092 22.7861 26.546C23.462 26.9828 24.2838 27.2392 25.1585 27.2392C25.7449 27.236 26.3049 27.1221 26.8152 26.9195Z" fill="white" stroke="white"></path>
  <path d="M23.4487 33.7753V33.7722H23.4453L23.4487 33.7753Z" fill="white" stroke="white"></path>
  <path d="M19.6861 31.7053C19.6828 31.7053 19.6828 31.7053 19.6861 31.7053V31.7053Z" fill="white" stroke="white"></path>
  <path d="M23.4492 12.5874V12.5842V12.5874Z" fill="white" stroke="white"></path>
  <path d="M34.1527 46.7844C34.5437 47.2751 34.7723 47.8828 34.7723 48.5475V48.7532H15.5482V48.5475C15.5482 47.8828 15.7768 47.2782 16.1678 46.7844C16.5389 46.3128 17.0558 45.952 17.6522 45.7621H32.6683C33.2647 45.952 33.7849 46.3128 34.1527 46.7844ZM34.5304 53.3301C34.2985 53.8556 33.9042 54.305 33.4172 54.6215C32.9235 54.9381 32.337 55.1216 31.7008 55.1216H29.186H21.1312H18.6197C18.1956 55.1216 17.7946 55.0394 17.4235 54.8906C16.8735 54.669 16.3997 54.2924 16.0717 53.8239C15.7404 53.3523 15.5449 52.792 15.5449 52.1812V49.9085H34.769V52.1812C34.7723 52.5926 34.6862 52.9788 34.5304 53.3301ZM28.3113 58.2552C28.0528 58.8408 27.6188 59.3409 27.0721 59.6954C26.522 60.0467 25.8693 60.2525 25.1602 60.2525C24.6864 60.2525 24.2391 60.1607 23.8316 59.9961C23.2153 59.7492 22.6951 59.3314 22.324 58.8091C21.9562 58.2869 21.7409 57.6602 21.7409 56.9828V56.2801H28.583V56.9828C28.583 57.4386 28.4836 57.8659 28.3113 58.2552ZM23.6692 32.1833C23.6361 32.1453 23.6195 32.0946 23.6195 32.044C23.6195 32.0218 23.6228 32.0123 23.6228 32.006L23.6295 31.9934C23.6427 31.9142 23.656 31.8414 23.656 31.7623C23.6527 31.5344 23.5798 31.3192 23.4439 31.1419C23.3081 30.9647 23.106 30.8254 22.8707 30.7589C22.2776 30.5975 21.711 30.3696 21.1809 30.0879L21.1875 30.0911C21.0152 29.9993 20.8363 29.9613 20.6574 29.9613C20.4752 29.9613 20.2929 30.0024 20.1372 30.0847C19.9748 30.167 19.8324 30.2905 19.7296 30.4519L19.733 30.4487C19.6932 30.5057 19.6302 30.5437 19.5574 30.5532H19.554L18.4043 30.6766C18.3944 30.6798 18.3811 30.6798 18.3745 30.6798C18.3148 30.6798 18.2519 30.6545 18.2088 30.6165V30.6133L17.3871 29.8283C17.344 29.7872 17.3142 29.7239 17.3142 29.6669C17.3142 29.6606 17.3142 29.6542 17.3175 29.6448L17.4467 28.5401V28.5433C17.4567 28.4736 17.4964 28.4103 17.5561 28.3755C17.5826 28.3597 17.6025 28.3438 17.6257 28.328C17.7516 28.2362 17.8576 28.1191 17.9338 27.9893C18.0233 27.8374 18.0697 27.6665 18.0697 27.4892C18.0697 27.3183 18.0233 27.1411 17.9305 26.986V26.9891C17.6356 26.4827 17.4004 25.9414 17.2314 25.3749V25.3717C17.1651 25.147 17.0193 24.9539 16.8305 24.8273C16.6482 24.6943 16.4196 24.6215 16.1843 24.6215C16.1048 24.6215 16.0187 24.6279 15.9392 24.6469H15.9425C15.9226 24.65 15.9027 24.6532 15.8895 24.6532C15.8331 24.6532 15.7801 24.6374 15.7404 24.6057H15.7437L14.8358 23.9125H14.8325C14.7762 23.8714 14.743 23.8081 14.743 23.7353V22.6275C14.743 22.5578 14.7762 22.4913 14.8358 22.4502L15.7437 21.757L15.7404 21.7602C15.7834 21.7254 15.8331 21.7095 15.8895 21.7095C15.906 21.7095 15.9226 21.7127 15.9425 21.719C16.0187 21.7349 16.1048 21.7444 16.1877 21.7444C16.4229 21.7444 16.6515 21.6684 16.8338 21.5386C17.0226 21.4088 17.1684 21.2189 17.2347 20.9942V20.991C17.4037 20.4245 17.6389 19.8832 17.9371 19.3799L17.9404 19.3736C18.0299 19.2185 18.073 19.0444 18.073 18.8735C18.073 18.6962 18.0266 18.5285 17.9404 18.3734C17.8642 18.2404 17.7582 18.1265 17.6257 18.0347C17.6025 18.0157 17.5826 17.9999 17.5561 17.9872C17.4964 17.9524 17.4567 17.8923 17.4467 17.8195L17.3175 16.7211V16.718C17.3142 16.7085 17.3142 16.7053 17.3142 16.6958C17.3142 16.6388 17.3407 16.5755 17.3904 16.5344L18.2088 15.7494L18.2121 15.7463C18.2552 15.7083 18.3148 15.6829 18.3745 15.6829C18.3844 15.6829 18.3944 15.6829 18.401 15.6829L19.5574 15.8064C19.6269 15.8127 19.6899 15.8539 19.7296 15.9108V15.914C19.8324 16.0691 19.9748 16.1925 20.1372 16.2748C20.2962 16.3571 20.4752 16.4015 20.6541 16.4015C20.833 16.4015 21.0152 16.3603 21.1809 16.2717C21.711 15.9931 22.2776 15.7684 22.8707 15.6007C23.1093 15.5373 23.3081 15.3949 23.4439 15.2177C23.5798 15.0404 23.656 14.8252 23.656 14.5973C23.656 14.5213 23.646 14.4453 23.6295 14.3662L23.6262 14.3599C23.6228 14.3441 23.6195 14.3282 23.6195 14.3124C23.6195 14.2618 23.6361 14.2111 23.6692 14.17V14.1731L24.3949 13.3059L24.3982 13.3027C24.4379 13.2521 24.5075 13.2204 24.5771 13.2204H25.7401C25.813 13.2204 25.8793 13.2521 25.9256 13.3059L26.648 14.1731C26.6811 14.2143 26.701 14.2618 26.701 14.3124C26.701 14.3314 26.6977 14.3472 26.6943 14.3662C26.6745 14.4453 26.6645 14.5213 26.6645 14.5973C26.6645 14.8252 26.7407 15.0436 26.8766 15.2177C27.0124 15.3949 27.2112 15.5342 27.4465 15.5975H27.4498C28.0462 15.7621 28.6128 15.9868 29.1396 16.2685C29.302 16.3571 29.4875 16.3983 29.6631 16.3983C29.8487 16.3983 30.0276 16.354 30.1866 16.2717C30.3457 16.1894 30.4848 16.0659 30.5875 15.9108C30.5909 15.9077 30.5909 15.9077 30.5909 15.9077C30.6306 15.8475 30.6969 15.8096 30.7665 15.8001L31.9195 15.6766H31.9228C31.9295 15.6766 31.9361 15.6766 31.946 15.6766C32.0123 15.6766 32.0719 15.6988 32.115 15.7431L32.9367 16.5281C32.9798 16.5724 33.0063 16.6325 33.0063 16.6895C33.0063 16.6958 33.0063 16.7085 33.003 16.7148V16.7116L32.8738 17.8163C32.8671 17.8859 32.8274 17.9461 32.7677 17.9809C32.7644 17.9809 32.7644 17.9809 32.7611 17.9841C32.5988 18.079 32.4695 18.2151 32.3834 18.3702C32.2939 18.5222 32.2508 18.6931 32.2508 18.8672C32.2508 19.0381 32.2939 19.2122 32.3867 19.3704C32.6816 19.8769 32.9168 20.4181 33.0891 20.9847V20.9879C33.1587 21.2126 33.3012 21.4057 33.4867 21.5323C33.669 21.6621 33.8976 21.738 34.1328 21.738C34.2157 21.738 34.2952 21.7285 34.378 21.7127C34.3946 21.7064 34.4145 21.7032 34.431 21.7032C34.4841 21.7032 34.5404 21.7222 34.5801 21.7538L35.488 22.447C35.5443 22.4913 35.5808 22.5578 35.5775 22.6243V23.7321C35.5775 23.7986 35.5443 23.8651 35.488 23.9094L34.5801 24.5994C34.5371 24.6342 34.4841 24.6469 34.4344 24.6469C34.4145 24.6469 34.3979 24.6469 34.3813 24.6405C34.3018 24.6215 34.219 24.6152 34.1362 24.6152C33.9009 24.6152 33.6723 24.688 33.49 24.821C33.3045 24.9507 33.1587 25.1406 33.0924 25.3654C32.9201 25.9351 32.6849 26.4732 32.39 26.9828L32.3933 26.9796C32.2972 27.1379 32.2542 27.312 32.2542 27.4829C32.2542 27.6602 32.2972 27.8279 32.3867 27.983C32.4728 28.1349 32.6021 28.271 32.7644 28.3692C32.8274 28.404 32.8671 28.4673 32.8738 28.5369L33.003 29.6353C33.0063 29.6448 33.0063 29.6543 33.0063 29.6606C33.0063 29.7207 32.9798 29.7809 32.9367 29.822V29.8252L32.115 30.6101C32.0686 30.6545 32.0057 30.6766 31.9427 30.6766C31.9328 30.6766 31.9261 30.6766 31.9162 30.6735H31.9195L30.7631 30.55H30.7598C30.7267 30.5468 30.6903 30.5342 30.6637 30.5152C30.6339 30.4962 30.6074 30.4772 30.5875 30.4424C30.4881 30.2873 30.3423 30.167 30.1866 30.0816C30.0243 29.9961 29.8487 29.9518 29.6631 29.9518C29.4842 29.9518 29.302 29.9961 29.1396 30.0847C28.6095 30.3633 28.0462 30.588 27.4498 30.7526C27.2112 30.8191 27.0157 30.9583 26.8766 31.1356C26.7407 31.3128 26.6645 31.5249 26.6645 31.7528C26.6645 31.8319 26.6745 31.9111 26.6943 31.987V31.9839C26.6977 32.0028 26.701 32.0187 26.701 32.0345C26.701 32.0851 26.6811 32.139 26.648 32.1738V32.1769L25.9853 32.9714H24.3319L23.6692 32.1833ZM16.0618 20.665C16.0618 20.6682 16.0618 20.6682 16.0618 20.665V20.665ZM22.4433 14.6289V14.6226C22.4433 14.6226 22.4433 14.6258 22.4433 14.6289ZM48.5692 22.3046C48.589 22.235 48.6122 22.1685 48.6421 22.0989C48.6454 22.0925 48.652 22.0799 48.652 22.0704C48.6752 22.0197 48.6951 21.9723 48.7183 21.9216C48.7315 21.8995 48.7448 21.8741 48.7547 21.8488C48.7812 21.8045 48.8011 21.7602 48.8276 21.7159C48.8409 21.6937 48.8541 21.6716 48.8707 21.6526C48.8972 21.6051 48.927 21.5608 48.9601 21.5196C48.9701 21.5006 48.9866 21.4848 48.9966 21.469C49.0397 21.412 49.0827 21.3582 49.1291 21.3044C49.1324 21.3012 49.1357 21.2949 49.1391 21.2949C49.1854 21.2348 49.2418 21.1778 49.2948 21.1271C49.3047 21.1176 49.3147 21.1081 49.3213 21.0986C49.3677 21.0543 49.4141 21.0132 49.4605 20.972C49.4803 20.9562 49.5002 20.9436 49.5135 20.9277C49.5565 20.8929 49.5996 20.8613 49.6394 20.8296C49.6858 20.798 49.7322 20.7663 49.7785 20.7378C49.7885 20.7315 49.805 20.722 49.8183 20.7125C49.8647 20.6808 49.9177 20.6492 49.9707 20.6207C49.9807 20.6112 49.9906 20.608 50.0005 20.6017C50.0602 20.5732 50.1132 20.5416 50.1761 20.5162C50.1795 20.5131 50.1861 20.5099 50.1894 20.5099C50.2457 20.4846 50.3054 20.4593 50.365 20.4371C50.3749 20.434 50.3816 20.4308 50.3915 20.4276C50.4512 20.4055 50.5141 20.3833 50.5737 20.3643C50.5837 20.3612 50.5969 20.358 50.6069 20.3548C50.6665 20.3358 50.7328 20.32 50.7924 20.3073C50.8024 20.301 50.8189 20.301 50.8289 20.2978C50.8918 20.2852 50.9581 20.2757 51.0211 20.263C51.0343 20.2599 51.0476 20.2599 51.0575 20.2567C51.1238 20.2472 51.1933 20.2377 51.2596 20.2345C51.2696 20.2345 51.2762 20.2345 51.2861 20.2345C51.3557 20.2282 51.4286 20.225 51.5015 20.225C51.9256 20.225 52.3232 20.3042 52.6877 20.4529C53.2344 20.6745 53.7016 21.048 54.0329 21.5133C54.3642 21.9786 54.5564 22.5357 54.5564 23.1434C54.5564 23.5454 54.4736 23.9284 54.3178 24.2765C54.0859 24.7988 53.6949 25.2451 53.2079 25.5616C52.7208 25.875 52.1377 26.0586 51.5048 26.0586C51.4617 26.0586 51.412 26.0586 51.359 26.0554C51.3491 26.0554 51.3325 26.0522 51.3159 26.0522C51.2828 26.0491 51.2497 26.0459 51.2232 26.0459C51.2033 26.0459 51.1834 26.0427 51.1668 26.0396C51.137 26.0364 51.1072 26.0332 51.0774 26.0301C51.0575 26.0269 51.0409 26.0237 51.0244 26.0237C50.9879 26.0174 50.9515 26.0142 50.915 26.0047C50.9051 26.0016 50.8918 26.0016 50.8885 25.9984C50.8454 25.9921 50.7991 25.9794 50.7593 25.9699C50.7394 25.9636 50.7229 25.9636 50.7063 25.9573C50.6798 25.9509 50.6533 25.9414 50.6268 25.9351C50.6069 25.9288 50.587 25.9256 50.5671 25.9193C50.5439 25.9098 50.5207 25.9035 50.4942 25.8971C50.4743 25.8876 50.4545 25.8845 50.4346 25.875C50.4147 25.8686 50.3915 25.856 50.365 25.8497C50.3484 25.8433 50.3286 25.8338 50.312 25.8275C50.2524 25.8053 50.2027 25.78 50.143 25.7547C50.1298 25.7452 50.1165 25.742 50.0999 25.7325C50.0502 25.7072 49.9972 25.6787 49.9508 25.6502C49.9343 25.6439 49.921 25.6344 49.9078 25.6281C49.8547 25.5964 49.8084 25.5648 49.7587 25.5363C49.7487 25.53 49.7355 25.5205 49.7255 25.5141C49.699 25.492 49.6659 25.473 49.6394 25.4508C49.6062 25.4255 49.5698 25.397 49.5333 25.3717C49.5068 25.3495 49.487 25.3306 49.4605 25.3084C49.4273 25.2831 49.3942 25.2546 49.3677 25.2261C49.3412 25.2039 49.318 25.1786 49.2948 25.1565C49.2683 25.1248 49.2385 25.0963 49.2086 25.0647C49.1854 25.0425 49.1623 25.0172 49.1424 24.9887C49.1159 24.9571 49.0894 24.9254 49.0662 24.8969C49.0463 24.8684 49.0231 24.8431 49.0032 24.8115C48.98 24.783 48.9601 24.7513 48.9403 24.7197C48.9204 24.688 48.8972 24.6564 48.8806 24.6247C48.8607 24.5962 48.8442 24.5677 48.8276 24.5392C48.811 24.5044 48.7878 24.4664 48.768 24.4285C48.7547 24.4031 48.7415 24.3778 48.7282 24.3493C48.7083 24.3082 48.6884 24.267 48.6719 24.2259C48.6619 24.2037 48.6553 24.1847 48.6454 24.1658C48.5195 23.8461 48.4532 23.5074 48.4532 23.1465C48.4433 22.8522 48.483 22.5705 48.5692 22.3046ZM43.46 8.17187C42.9099 7.95347 42.4461 7.57997 42.1114 7.11468C41.7801 6.64623 41.5912 6.08915 41.5912 5.48459C41.5912 5.08261 41.6741 4.69962 41.8331 4.35144C42.0617 3.82918 42.4527 3.38288 42.9398 3.06636C43.4301 2.74984 44.0133 2.56626 44.6428 2.56626C45.0669 2.56626 45.4645 2.64855 45.829 2.79732C46.3757 3.01572 46.8429 3.38922 47.1775 3.8545C47.5089 4.32296 47.6944 4.87687 47.6944 5.48459C47.6944 5.88658 47.6116 6.26957 47.4559 6.61774C47.2239 7.14001 46.8363 7.5863 46.3459 7.90283C46.1007 8.06109 45.8356 8.18453 45.5507 8.26999C45.5474 8.26999 45.5441 8.26999 45.5407 8.27316C45.2558 8.35545 44.9576 8.40293 44.6395 8.40293C44.222 8.40293 43.8277 8.32064 43.46 8.17187ZM47.1775 41.9765C47.5089 42.4449 47.6944 43.002 47.6944 43.6066C47.6944 44.0085 47.6116 44.3915 47.4559 44.7397C47.2239 45.262 46.8363 45.7083 46.3459 46.0248C45.8588 46.3413 45.2724 46.5249 44.6428 46.5249C44.222 46.5249 43.8244 46.4426 43.46 46.2938C42.9099 46.0754 42.4461 45.7019 42.1114 45.2367C41.7801 44.7682 41.5912 44.2143 41.5912 43.6066C41.5912 43.2046 41.6741 42.8216 41.8331 42.4734C42.0617 41.9511 42.4527 41.5049 42.9398 41.1883C43.4301 40.8718 44.0133 40.6882 44.6428 40.6882C45.0669 40.6882 45.4645 40.7705 45.829 40.9193C46.3757 41.1377 46.8462 41.5112 47.1775 41.9765ZM9.09375 23.0674C9.10369 26.2801 10.1441 29.2649 11.92 31.7243H11.9234C14.7331 35.627 16.4693 40.1185 16.9133 44.7935C16.2307 45.0784 15.641 45.5279 15.197 46.0881C14.6569 46.7718 14.3388 47.6264 14.3388 48.5475V48.7532L13.146 48.7564C12.8113 48.7564 12.543 49.0159 12.543 49.3325C12.543 49.6521 12.8113 49.9117 13.146 49.9117H14.3388V52.1875C14.3388 52.7509 14.4581 53.2922 14.6735 53.7828C15.0015 54.5171 15.5449 55.1406 16.2274 55.5838C16.9133 56.0269 17.7383 56.2833 18.623 56.2833H20.5282V56.986C20.5282 57.5969 20.6574 58.1793 20.8926 58.7079C21.2439 59.5023 21.8336 60.1765 22.5725 60.6545C23.3114 61.1324 24.206 61.411 25.1602 61.411C25.7964 61.411 26.4061 61.2875 26.966 61.0628C27.7944 60.7273 28.5001 60.167 29.0038 59.458C29.5041 58.7522 29.7956 57.8976 29.7956 56.9828V56.2801H31.7041C32.2906 56.2801 32.8572 56.1662 33.3708 55.9573C34.1428 55.6471 34.7922 55.128 35.2561 54.4759C35.7199 53.8207 35.9883 53.0294 35.9883 52.1843V49.9117H37.1811C37.5158 49.9117 37.7875 49.649 37.7875 49.3325C37.7875 49.0128 37.5158 48.7532 37.1811 48.7532H35.9883V48.5475C35.9883 47.6264 35.6669 46.7718 35.1302 46.0849C34.6862 45.5279 34.0997 45.0752 33.4172 44.7935C33.5232 43.7395 33.7452 42.6064 34.0533 41.4384C34.5868 39.4475 35.3787 37.3616 36.3097 35.4118C37.148 33.6551 38.0989 31.9997 39.0631 30.6196L43.4666 33.2246C43.9868 33.5348 44.4043 33.9526 44.6859 34.4432C44.9709 34.9307 45.1266 35.4878 45.1266 36.0733V39.5551C44.9708 39.5392 44.8118 39.5298 44.6495 39.5298C44.0663 39.5298 43.4997 39.6469 42.9928 39.8494C42.2241 40.1596 41.578 40.6756 41.1174 41.3244C40.6569 41.9733 40.3852 42.7614 40.3852 43.6034C40.3852 44.1636 40.5044 44.7017 40.7231 45.1892C41.0478 45.9203 41.5879 46.5407 42.2671 46.9807C42.9464 47.4207 43.7714 47.6802 44.6495 47.6802C45.2326 47.6802 45.7992 47.5663 46.3094 47.3605C47.0748 47.0503 47.7243 46.5344 48.1848 45.8855C48.6454 45.2335 48.9138 44.4485 48.9138 43.6066C48.9138 43.0463 48.7945 42.5114 48.5758 42.0208C48.2511 41.2896 47.7143 40.6692 47.0318 40.2293C46.8164 40.0868 46.5811 39.9666 46.3393 39.8653V36.0765C46.3393 35.2915 46.1305 34.5414 45.7462 33.8798C45.3618 33.2215 44.8019 32.6549 44.1027 32.2402L39.6761 29.6226C40.0439 28.8819 40.3586 28.1033 40.6005 27.3025C40.8457 26.4922 41.0213 25.6534 41.124 24.7956H47.5983C47.6911 24.9919 47.7971 25.185 47.9197 25.3622C47.9264 25.3685 47.9297 25.378 47.933 25.3844C47.9529 25.4128 47.9761 25.4382 47.9926 25.4667C48.0026 25.4825 48.0125 25.4983 48.0225 25.511C48.0423 25.5331 48.0589 25.5584 48.0788 25.5806C48.092 25.5996 48.1053 25.6154 48.1219 25.6344C48.1384 25.6566 48.155 25.6756 48.1716 25.6977C48.1914 25.7199 48.208 25.7357 48.2246 25.7579C48.2378 25.7768 48.2544 25.7927 48.271 25.8117C48.2908 25.8338 48.3107 25.8528 48.3306 25.875C48.3472 25.8908 48.3604 25.9098 48.377 25.9256C48.4002 25.9478 48.4201 25.9699 48.4399 25.9889C48.4565 26.0047 48.4698 26.0206 48.4863 26.0364C48.5095 26.0586 48.5294 26.0807 48.5559 26.0997C48.5725 26.1124 48.5824 26.1282 48.599 26.1409C48.6255 26.163 48.6487 26.182 48.6752 26.2042C48.6918 26.2168 48.7017 26.2295 48.7183 26.2421C48.7448 26.2643 48.7713 26.2833 48.7978 26.3054C48.811 26.3181 48.8243 26.3276 48.8409 26.3403C48.8707 26.3624 48.9005 26.3814 48.9303 26.4036C48.9369 26.4099 48.9502 26.4162 48.9601 26.4257C48.9635 26.4289 48.9668 26.4321 48.9701 26.4352C49.0032 26.4574 49.0363 26.4827 49.0695 26.5017C49.0794 26.5112 49.0894 26.5143 49.096 26.5238C49.1026 26.527 49.1059 26.5302 49.1059 26.5302C49.2848 26.6441 49.4704 26.7454 49.6659 26.834C49.6725 26.8372 49.6758 26.8404 49.6825 26.8435C49.7255 26.8657 49.7686 26.8815 49.8117 26.9005C49.8216 26.9068 49.8316 26.9068 49.8382 26.91C49.8813 26.929 49.921 26.9448 49.9608 26.9575C49.974 26.9606 49.9873 26.967 50.0005 26.9701C50.0403 26.9828 50.0767 26.9955 50.1132 27.0081C50.1298 27.0145 50.1463 27.0176 50.1596 27.0239C50.196 27.0334 50.2325 27.0461 50.2689 27.0556C50.2855 27.0619 50.3021 27.0651 50.3186 27.0714C50.3551 27.0809 50.3915 27.0904 50.4246 27.0999C50.4445 27.1031 50.4644 27.1094 50.4843 27.1126C50.5207 27.1189 50.5539 27.1284 50.587 27.1347C50.6102 27.1379 50.6301 27.1411 50.6466 27.1442C50.6798 27.1506 50.7162 27.1569 50.7494 27.1632C50.7692 27.1695 50.7924 27.1727 50.8123 27.1727C50.8454 27.179 50.8786 27.1822 50.915 27.1885C50.9382 27.1917 50.9581 27.1949 50.978 27.1949C51.0111 27.2012 51.0476 27.2012 51.084 27.2044C51.1072 27.2075 51.1271 27.2107 51.147 27.2107C51.1867 27.2139 51.2232 27.217 51.2596 27.217C51.2795 27.217 51.2994 27.2202 51.3159 27.2202C51.3723 27.2234 51.4286 27.2234 51.4849 27.2234C52.0714 27.2234 52.6347 27.1094 53.1449 26.9037C53.9103 26.5935 54.5597 26.0775 55.0203 25.4287C55.4841 24.7798 55.7492 23.9948 55.7492 23.1529C55.7492 22.5926 55.6299 22.0545 55.4146 21.5639C55.0899 20.8328 54.5498 20.2124 53.8705 19.7724C53.188 19.3325 52.3696 19.0761 51.4849 19.0761C51.4187 19.0761 51.3524 19.0792 51.2861 19.0824C51.2629 19.0824 51.243 19.0856 51.2232 19.0856C51.1801 19.0887 51.1304 19.0919 51.084 19.0951C51.0608 19.0982 51.0376 19.1014 51.0111 19.1014C50.968 19.1077 50.925 19.1109 50.8819 19.1172C50.8587 19.1204 50.8388 19.1235 50.8123 19.1267C50.7659 19.133 50.7195 19.1425 50.6698 19.1489C50.6533 19.152 50.6367 19.1552 50.6168 19.1584C50.5539 19.171 50.4909 19.1837 50.428 19.1995C50.4114 19.2058 50.3915 19.209 50.3716 19.2153C50.3286 19.2248 50.2888 19.2375 50.2424 19.2502C50.2159 19.2565 50.1894 19.266 50.1662 19.2723C50.1264 19.2818 50.09 19.2945 50.0569 19.3071C50.0304 19.3135 50.0039 19.323 49.9773 19.3325C49.9442 19.3451 49.9078 19.3578 49.8713 19.3736C49.8547 19.3799 49.8349 19.3831 49.8216 19.3926C49.8117 19.3958 49.805 19.3989 49.7951 19.4021C49.7785 19.4084 49.762 19.4147 49.7454 19.4242C49.7156 19.4401 49.6791 19.4527 49.646 19.4686C49.6294 19.4749 49.6096 19.4844 49.5963 19.4939C49.5632 19.5065 49.5334 19.5224 49.5002 19.5382C49.4837 19.5477 49.4671 19.5572 49.4472 19.5667C49.4174 19.5825 49.3876 19.5983 49.3577 19.6142C49.3412 19.6237 49.3213 19.6363 49.3014 19.6458C49.2749 19.6616 49.2451 19.6806 49.2153 19.6965C49.1987 19.7059 49.1821 19.7154 49.1656 19.7249C49.1357 19.7471 49.1059 19.7629 49.0728 19.7851C49.0562 19.7946 49.043 19.8041 49.0297 19.8136C48.9966 19.8357 48.9601 19.861 48.927 19.8864C48.9171 19.8927 48.9138 19.8927 48.9038 19.899C48.9038 19.9022 48.9038 19.9022 48.9005 19.9054C48.7713 20.0003 48.6421 20.1016 48.5228 20.2124C48.5195 20.2156 48.5161 20.2187 48.5128 20.2219C48.4764 20.2567 48.4433 20.2884 48.4101 20.3232C48.4002 20.3327 48.3936 20.339 48.3836 20.3485C48.3538 20.377 48.324 20.4055 48.3008 20.434C48.2908 20.4466 48.2776 20.4561 48.2676 20.4688C48.2411 20.4941 48.2179 20.5226 48.1948 20.5511C48.1815 20.5637 48.1682 20.5764 48.1583 20.589C48.1351 20.6144 48.1119 20.6429 48.092 20.6713C48.0821 20.684 48.0688 20.6967 48.0589 20.7125C48.0357 20.7378 48.0158 20.7663 47.9926 20.798C47.9827 20.8106 47.9761 20.8233 47.9661 20.8359C47.9562 20.8486 47.9496 20.8581 47.9396 20.8708C47.9264 20.8929 47.9131 20.9087 47.8965 20.9309C47.8899 20.9436 47.88 20.953 47.87 20.9657C47.8502 21.0005 47.827 21.0353 47.8038 21.0702C47.7971 21.0797 47.7938 21.0892 47.7872 21.0955C47.7607 21.1366 47.7375 21.1809 47.7143 21.2221C47.711 21.2253 47.7077 21.2284 47.7044 21.2316C47.6282 21.3709 47.5553 21.5196 47.4956 21.6684C47.4923 21.6747 47.489 21.681 47.4857 21.6874C47.4691 21.7317 47.4492 21.776 47.436 21.8203C47.4294 21.8298 47.4261 21.8425 47.4261 21.852C47.4095 21.89 47.3962 21.9311 47.3863 21.9722C47.383 21.9786 47.383 21.9817 47.3797 21.9849C47.3797 21.9912 47.3797 21.9944 47.3764 21.9944C47.2637 22.3584 47.2007 22.7477 47.2007 23.1465C47.2007 23.3111 47.2107 23.4789 47.2339 23.6372H41.1539L41.1605 23.1497C41.1605 23.0991 41.1605 23.0484 41.1605 23.0009C41.1605 20.8296 40.6999 18.6678 39.7589 16.68L44.0729 14.1225C44.772 13.711 45.332 13.1444 45.7164 12.4861C46.1007 11.8277 46.3094 11.0712 46.3094 10.2894V9.23222C47.0616 8.91886 47.7011 8.40926 48.155 7.76989C48.6156 7.11785 48.8839 6.33287 48.8839 5.49092C48.8839 4.93068 48.7647 4.39576 48.546 3.90515C48.2213 3.17398 47.6845 2.5536 47.0019 2.11363C46.3492 1.6705 45.5275 1.41095 44.6461 1.41095C44.063 1.41095 43.4964 1.52806 42.9895 1.73064C42.2208 2.04083 41.5747 2.55676 41.1141 3.20563C40.6535 3.8545 40.3818 4.64264 40.3818 5.48459C40.3818 6.04484 40.5011 6.58293 40.7198 7.07037C41.0445 7.80154 41.5846 8.42192 42.2638 8.86189C42.9431 9.30186 43.7681 9.5614 44.6461 9.5614C44.8085 9.5614 44.9675 9.55191 45.1233 9.53608V10.2862C45.1233 10.8718 44.9675 11.4321 44.6826 11.9195C44.401 12.4069 43.9835 12.8279 43.4633 13.1381L39.2155 15.6513L38.427 14.3789L38.4071 14.3441C37.6516 13.3027 36.7703 12.35 35.7763 11.5143C35.5278 11.3054 35.1434 11.3276 34.9214 11.5682C34.6994 11.8055 34.7226 12.1727 34.9744 12.3848C35.8889 13.1539 36.7007 14.0275 37.3932 14.9866L38.47 16.7243C38.5131 16.8034 38.5496 16.8826 38.5926 16.9617C39.5237 18.8387 39.9776 20.9087 39.9776 22.9946C39.9776 23.0421 39.9776 23.0864 39.9776 23.1339L39.9677 24.1847C39.8882 25.147 39.7059 26.0839 39.4342 26.9796C39.1625 27.8722 38.8014 28.7268 38.364 29.5403C36.8664 31.585 35.4217 34.2217 34.2919 36.9754C33.7253 38.3586 33.2415 39.7703 32.8738 41.1503C32.559 42.3373 32.3304 43.4989 32.2144 44.6036H25.7633V34.1394H26.2437C26.3729 34.1394 26.4955 34.1014 26.6016 34.0286C26.7043 33.9558 26.7971 33.8703 26.8699 33.7817L26.8733 33.7785L27.5989 32.9113C27.8076 32.6644 27.9137 32.3574 27.9137 32.0472C27.9137 31.9807 27.9037 31.9111 27.8971 31.8446C28.5034 31.6673 29.0866 31.4394 29.6333 31.1577C29.7426 31.2938 29.8719 31.4141 30.0276 31.5059C30.2098 31.6135 30.4186 31.6832 30.6372 31.7085L31.7903 31.8319H31.7936C31.8466 31.8383 31.8996 31.8414 31.9526 31.8414C32.337 31.8414 32.7081 31.6958 32.9798 31.4394V31.4363L33.7982 30.6513V30.6545C34.0732 30.3917 34.2289 30.0404 34.2289 29.6732C34.2289 29.6226 34.2256 29.572 34.219 29.5245L34.2157 29.5213L34.0865 28.4166V28.4135C34.0401 28.0337 33.828 27.6886 33.5066 27.4608C33.8048 26.9322 34.0434 26.3814 34.2289 25.8022C34.2985 25.8117 34.3681 25.818 34.441 25.818C34.7657 25.818 35.0838 25.7135 35.3455 25.5141L36.2534 24.8241V24.821C36.5947 24.5614 36.7968 24.1658 36.7968 23.7416V22.6338C36.7968 22.2065 36.5947 21.814 36.2534 21.5544V21.5418L35.3455 20.8486C35.0838 20.6524 34.7624 20.5479 34.4377 20.5479C34.3681 20.5479 34.2985 20.5542 34.2289 20.5637C34.0434 19.9845 33.8015 19.4274 33.5066 18.902C33.828 18.6741 34.0401 18.3291 34.0865 17.9492L34.2157 16.8446V16.8414C34.2256 16.7908 34.2256 16.7401 34.2256 16.6895C34.2256 16.3223 34.0699 15.971 33.7949 15.7083L32.9765 14.9233C32.7015 14.6606 32.3304 14.5181 31.9493 14.5181C31.8996 14.5181 31.84 14.5213 31.787 14.5245H31.7903L30.6372 14.6479C30.233 14.6922 29.8719 14.8948 29.6333 15.2018C29.0866 14.9201 28.5067 14.6859 27.8971 14.515C27.907 14.4485 27.9137 14.382 27.9137 14.3092C27.9137 14.0022 27.8043 13.6952 27.5989 13.4483L26.8733 12.581V12.5842C26.5982 12.255 26.1841 12.0651 25.7434 12.0651H24.5804C24.1397 12.0651 23.7256 12.2582 23.4506 12.5874L22.7249 13.4546L22.7216 13.4578C22.5195 13.7047 22.4068 14.0085 22.4068 14.3187C22.4068 14.3852 22.4135 14.4548 22.4234 14.5245C21.8171 14.6986 21.2339 14.9296 20.6872 15.2113C20.4486 14.9075 20.0875 14.7017 19.6833 14.6574H19.6866L18.5302 14.534C18.4772 14.5276 18.4242 14.5276 18.3679 14.5276C17.9868 14.5276 17.619 14.6701 17.3407 14.9328L17.344 14.9296L16.5223 15.7146L16.519 15.7178C16.2506 15.9805 16.0982 16.3287 16.0982 16.6958C16.0982 16.7433 16.1015 16.8003 16.1081 16.8509L16.234 17.9524V17.9587C16.2804 18.3386 16.4925 18.6836 16.8139 18.9115C16.5157 19.4369 16.2771 19.9908 16.0949 20.5732C16.0187 20.5637 15.9524 20.5574 15.8828 20.5574C15.5548 20.5574 15.2367 20.6618 14.9783 20.8581H14.975L14.0671 21.5513C13.7192 21.814 13.5204 22.2128 13.5204 22.6338V23.7416C13.5204 24.1626 13.7192 24.5614 14.0671 24.8241L14.975 25.5141C15.2367 25.7135 15.5548 25.818 15.8828 25.818C15.9524 25.818 16.022 25.8117 16.0949 25.8022C16.2738 26.3814 16.5157 26.9385 16.8139 27.4608C16.4925 27.6886 16.2804 28.0305 16.234 28.4103V28.4166L16.1081 29.5213C16.1015 29.5688 16.0982 29.6226 16.0982 29.6732C16.0982 30.0404 16.2473 30.3917 16.5223 30.6545L17.344 31.4394C17.619 31.699 17.9835 31.8446 18.3679 31.8446C18.4242 31.8446 18.4772 31.8414 18.5302 31.8383L18.5335 31.8351L19.6899 31.7116C20.0875 31.6705 20.452 31.4679 20.6905 31.1609C21.2372 31.4426 21.8171 31.6737 22.4267 31.8478C22.4168 31.9174 22.4102 31.987 22.4102 32.0503C22.4102 32.3605 22.5195 32.6644 22.7249 32.9113L22.7282 32.9144L23.4539 33.7817C23.5301 33.8767 23.6262 33.9621 23.7289 34.0349C23.8316 34.1077 23.9575 34.1457 24.0867 34.1457H24.5572V44.6131H18.1094C17.6356 39.7608 15.8298 35.1111 12.9174 31.0786C11.2806 28.8028 10.3164 26.0459 10.3098 23.0737C10.3098 23.0643 10.3098 23.0516 10.3098 23.0484C10.3098 19.152 11.9731 15.6101 14.6602 13.0368C17.3473 10.4635 21.0517 8.86822 25.1304 8.85872H25.1337C25.1437 8.85872 25.1536 8.85872 25.1602 8.85872C26.5254 8.85872 27.8474 9.03598 29.1032 9.36516C29.4245 9.44746 29.7559 9.26704 29.8487 8.96001C29.9381 8.65298 29.7493 8.3333 29.4245 8.24784C28.0661 7.89016 26.6347 7.70025 25.1602 7.70025C25.147 7.70025 25.1371 7.70025 25.1337 7.70025C20.7203 7.70975 16.7079 9.44113 13.8087 12.2202C10.8995 14.9866 9.09375 18.8197 9.09375 23.0389C9.09375 23.0516 9.09375 23.0611 9.09375 23.0674Z" fill="white" stroke="white"></path>
  <path d="M25.161 3.01581C24.8264 3.01581 24.5547 3.27536 24.5547 3.59504V5.77588C24.5547 6.09241 24.8264 6.35512 25.161 6.35512C25.4957 6.35512 25.7674 6.09241 25.7674 5.77588V3.59504C25.7674 3.27536 25.4957 3.01581 25.161 3.01581Z" fill="white" stroke="white"></path>
  <path d="M11.0806 8.15597C10.8421 7.93124 10.461 7.93124 10.2258 8.15597C9.98723 8.38387 9.98723 8.75104 10.2258 8.97577L11.8394 10.5204C12.078 10.7451 12.459 10.7451 12.6943 10.5204C12.9295 10.2925 12.9295 9.92534 12.6943 9.7006L11.0806 8.15597Z" fill="white" stroke="white"></path>
  <path d="M1.60635 21.4563C1.2717 21.4563 1 21.7127 1 22.0355C1 22.3521 1.2717 22.6116 1.60635 22.6116H6.19204C6.53 22.6116 6.79839 22.3521 6.79839 22.0355C6.79839 21.7158 6.53 21.4563 6.19204 21.4563H1.60635Z" fill="white" stroke="white"></path>
  <path d="M10.3051 34.1552L8.68816 35.6966C8.45291 35.9245 8.45291 36.2885 8.68816 36.5164C8.92672 36.7412 9.30775 36.7412 9.543 36.5164L11.1566 34.9718C11.3952 34.7471 11.3952 34.3799 11.1566 34.1552C10.928 33.9273 10.5403 33.9273 10.3051 34.1552Z" fill="white" stroke="white"></path>
</svg>
