<?xml version="1.0" encoding="UTF-8"?>
<svg xmlns="http://www.w3.org/2000/svg" width="61" height="61" viewBox="0 0 61 61" fill="none">
  <g clip-path="url(#clip0_1383_47570)">
    <path d="M56.346 20.7369H55.4256V14.5931C55.4256 12.9109 55.4255 12.5496 52.3724 12.5496H32.589C30.9055 12.5496 30.9055 12.5496 30.9055 15.6063C30.9055 15.6124 30.9055 15.6185 30.9056 15.6243L30.9059 21.948C30.9059 22.5951 31.4305 23.1199 32.0777 23.1199H34.17C35.1178 23.1199 35.889 23.8894 35.889 24.8354C35.889 25.7813 35.1178 26.5509 34.17 26.5509H32.0777C31.4305 26.5509 30.9059 27.0757 30.9059 27.7228V34.0251C30.9059 34.0319 30.9059 34.0387 30.906 34.0455C30.9109 34.3266 30.9545 34.599 31.0317 34.8571C30.7662 34.7814 30.486 34.7408 30.1964 34.7407H23.8805C23.2332 34.7407 22.7086 35.2654 22.7086 35.9125V37.9998C22.7086 38.9456 21.9374 39.7153 20.9896 39.7153C20.0418 39.7153 19.2707 38.9457 19.2707 37.9998V35.9125C19.2707 35.2654 18.746 34.7407 18.0988 34.7407L10.2925 34.7401C8.74219 34.7407 8.74992 34.7016 8.74992 37.4437C8.74477 37.4885 8.74219 37.5335 8.74219 37.5783V56.4063C8.74219 56.4514 8.74477 56.4964 8.74992 56.541C8.74992 59.1998 8.74992 59.2391 11.7827 59.2391H30.1965C30.9185 59.2391 31.5827 58.9873 32.106 58.5672C32.6216 58.9634 33.2651 59.1998 33.9587 59.1998H52.3725C55.4255 59.1998 55.4257 59.1998 55.4257 56.1489V41.3538C55.4257 40.7067 54.9011 40.1819 54.2538 40.1819C53.6066 40.1819 53.0819 40.7067 53.0819 41.3538V56.1489C53.0819 56.5388 52.7637 56.856 52.3725 56.856H33.9586C33.5768 56.856 33.2604 56.5488 33.2496 56.1697V51.0517H34.17C36.4103 51.0517 38.2328 49.2308 38.2328 46.9925C38.2328 44.7542 36.4103 42.9332 34.17 42.9332H33.2496V37.7968C33.2496 37.7826 33.2495 37.7685 33.2493 37.7545C33.2509 37.3631 33.5685 37.0453 33.9586 37.0453H39.1027V37.9605C39.1027 40.1989 40.9252 42.0199 43.1654 42.0199C45.4057 42.0199 47.2282 40.1989 47.2282 37.9605V37.0453H52.3723C52.7634 37.0453 53.0817 37.3648 53.0817 37.7575V42.0085C53.0817 42.6556 53.6064 43.1804 54.2536 43.1804C54.9008 43.1804 55.4255 42.6556 55.4255 42.0085V37.7575C55.4255 37.0475 55.1823 36.3932 54.775 35.8739C55.1823 35.3548 55.4255 34.7012 55.4255 33.9917V28.8553H56.3459C58.5861 28.8553 60.4086 27.0343 60.4086 24.796C60.4086 22.5577 58.5862 20.7369 56.346 20.7369ZM34.17 45.277C35.1178 45.277 35.889 46.0466 35.889 46.9925C35.889 47.9384 35.1178 48.708 34.17 48.708H32.0777C31.4305 48.708 30.9059 49.2328 30.9059 49.8799V56.1882C30.9059 56.5781 30.5876 56.8953 30.1964 56.8953H11.7827C11.4397 56.8953 11.1487 56.6525 11.0859 56.3225V37.6621C11.1489 37.3294 11.4398 37.0845 11.7827 37.0844H16.9269V37.9998C16.9269 40.238 18.7494 42.059 20.9896 42.059C23.2298 42.059 25.0523 40.238 25.0523 37.9998V37.0844H30.1966C30.5831 37.0845 30.8984 37.3967 30.9057 37.7831L30.9059 44.1051C30.9059 44.7522 31.4305 45.277 32.0777 45.277H34.17ZM56.346 26.5116H54.2537C53.6065 26.5116 53.0818 27.0364 53.0818 27.6835V33.9918C53.0818 34.3832 52.7635 34.7016 52.3724 34.7016H46.0564C45.4092 34.7016 44.8846 35.2264 44.8846 35.8735V37.9606C44.8846 38.9066 44.1134 39.6762 43.1655 39.6762C42.2177 39.6762 41.4465 38.9067 41.4465 37.9606V35.8735C41.4465 35.2264 40.9219 34.7016 40.2746 34.7016H33.9587C33.5769 34.7016 33.2605 34.3932 33.2497 34.0126V28.8946H34.1701C36.4104 28.8946 38.2329 27.0737 38.2329 24.8354C38.2329 22.5971 36.4104 20.7761 34.1701 20.7761H33.2497V15.6397L33.2494 15.6004C33.2494 15.2105 33.5675 14.8933 33.9587 14.8933H52.3725C52.7637 14.8933 53.0819 15.2105 53.0819 15.6004V21.9087C53.0819 22.5558 53.6066 23.0806 54.2538 23.0806H56.3461C57.2939 23.0806 58.0651 23.8501 58.0651 24.7961C58.065 25.7419 57.2938 26.5116 56.346 26.5116Z" fill="white" stroke="white" stroke-width="0.3"></path>
    <path d="M12.4613 16.164C12.1769 16.164 11.9008 16.0604 11.6857 15.8706L9.2634 13.7317C8.77824 13.3033 8.7323 12.5626 9.16062 12.0776C9.58906 11.5925 10.3297 11.5466 10.8147 11.9748L12.297 13.2838L15.4768 9.15009C15.8715 8.63705 16.6072 8.54107 17.1201 8.93576C17.633 9.33033 17.729 10.0661 17.3345 10.579L13.3902 15.7066C13.1923 15.9638 12.8966 16.1276 12.5735 16.1586C12.5361 16.1621 12.4986 16.164 12.4613 16.164V16.164Z" fill="white" stroke="white" stroke-width="0.3"></path>
    <path d="M12.6577 29.8811C10.4174 29.8811 8.59488 28.0602 8.59488 25.8218V24.9065H3.4507C1.89996 24.9065 0.596133 23.7456 0.417891 22.2059C0.412734 22.1614 0.410156 22.1164 0.410156 22.0714V3.24361C0.410156 3.19849 0.412734 3.15349 0.417891 3.10884C0.596016 1.57075 1.89984 0.41095 3.4507 0.41095H21.8645C23.548 0.41095 24.9176 1.77958 24.9176 3.46181V8.59825H25.838C28.0781 8.59825 29.9006 10.4192 29.9006 12.6575C29.9006 14.8958 28.0781 16.7168 25.838 16.7168H24.9176V21.8532C24.9176 23.5368 23.5479 24.9068 21.8645 24.9068H16.7203V25.822C16.7203 28.0602 14.8978 29.8811 12.6577 29.8811V29.8811ZM2.75391 21.9876C2.81684 22.319 3.1077 22.5629 3.4507 22.5629H9.76664C10.4139 22.5629 10.9385 23.0877 10.9385 23.7348V25.8219C10.9385 26.7678 11.7097 27.5375 12.6575 27.5375C13.6054 27.5375 14.3764 26.7679 14.3764 25.8219V23.7348C14.3764 23.0877 14.9011 22.5629 15.5483 22.5629H21.8644C22.2555 22.5629 22.5737 22.2445 22.5737 21.8531V15.5448C22.5737 14.8977 23.0984 14.3729 23.7456 14.3729H25.8379C26.7857 14.3729 27.5568 13.6034 27.5568 12.6574C27.5568 11.7116 26.7857 10.9419 25.8379 10.9419H23.7457C23.0985 10.9419 22.5738 10.4171 22.5738 9.77001V3.46181C22.5738 3.07193 22.2557 2.7547 21.8645 2.7547H3.4507C3.10758 2.7547 2.81672 2.99751 2.75391 3.32751V21.9876Z" fill="white" stroke="white" stroke-width="0.3"></path>
  </g>
  <defs>
    <clipPath id="clip0_1383_47570">
      <rect width="60" height="60" fill="white" transform="translate(0.410156 0.41095)"></rect>
    </clipPath>
  </defs>
</svg>
