<?xml version="1.0" encoding="UTF-8"?>
<svg xmlns="http://www.w3.org/2000/svg" width="58" height="59" viewBox="0 0 58 59" fill="none">
  <path d="M57.25 40.0929V38.3159C57.25 37.1405 56.7644 36.0254 55.8738 35.1689C54.9794 34.3338 53.8028 33.8735 52.5625 33.8735H37.5625C36.2181 33.8735 34.9431 34.4173 34.0713 35.3582C33.2997 36.1694 32.875 37.2204 32.875 38.3159V40.0929C32.875 40.2581 32.9144 43.8654 35.6875 45.0515V52.5316H33.8125C33.2941 52.5316 32.875 52.9287 32.875 53.42V56.974C32.875 57.4653 33.2941 57.8624 33.8125 57.8624H56.3125C56.8309 57.8624 57.25 57.4653 57.25 56.974V53.42C57.25 52.9287 56.8309 52.5316 56.3125 52.5316H54.4375V45.0497C57.2097 43.8565 57.25 40.2572 57.25 40.0929ZM36.8547 43.5668C35.5206 43.247 35.0341 41.9018 34.855 40.9814H40.2822C40.0863 42.0351 39.4731 43.6468 37.5616 43.6468C37.2981 43.6468 37.0712 43.6219 36.8547 43.5668ZM47.875 39.2044H42.25V35.6505H47.875V39.2044ZM47.7831 40.9814C47.5872 42.0351 46.9741 43.6468 45.0625 43.6468C43.1659 43.6468 42.5481 42.036 42.3475 40.9814H47.7831ZM52.5625 43.6468C50.6659 43.6468 50.0481 42.036 49.8475 40.9814H55.27C55.09 41.9018 54.6006 43.2488 53.2591 43.5704C53.0537 43.6219 52.8269 43.6468 52.5625 43.6468ZM54.5481 36.4252C55.0816 36.9379 55.375 37.6096 55.375 38.3159V39.2044H49.75V35.6505H52.5625C53.3078 35.6505 54.0166 35.9286 54.5481 36.4252ZM34.75 38.3159C34.75 37.6602 35.0041 37.0321 35.4728 36.539C35.9969 35.9739 36.7581 35.6505 37.5625 35.6505H40.375V39.2044H34.75V38.3159ZM55.375 56.0855H34.75V54.3085H55.375V56.0855ZM46.9375 52.5316H43.1875V48.9777H46.9375V52.5316ZM48.8125 52.5316V48.0892C48.8125 47.5978 48.3934 47.2007 47.875 47.2007H42.25C41.7316 47.2007 41.3125 47.5978 41.3125 48.0892V52.5316H37.5625V45.4237C39.4319 45.4237 40.6056 44.537 41.3125 43.422C42.0194 44.537 43.1931 45.4237 45.0625 45.4237C46.9319 45.4237 48.1056 44.537 48.8125 43.422C49.5194 44.537 50.6931 45.4237 52.5625 45.4237V52.5316H48.8125Z" fill="white" stroke="white"></path>
  <path d="M27.25 24.9888C27.7684 24.9888 28.1875 24.5916 28.1875 24.1003V21.4349C28.1875 20.9435 27.7684 20.5464 27.25 20.5464C26.7316 20.5464 26.3125 20.9435 26.3125 21.4349V24.1003C26.3125 24.5916 26.7316 24.9888 27.25 24.9888Z" fill="white" stroke="white"></path>
  <path d="M29.4112 26.1269C29.3812 26.1536 28.6743 26.7657 27.2502 26.7657C25.8262 26.7657 25.1193 26.1536 25.1005 26.1376C24.734 25.7902 24.1415 25.7902 23.7749 26.1376C23.4084 26.485 23.4084 27.0465 23.7749 27.3939C23.8987 27.512 25.0499 28.5427 27.2502 28.5427C29.4505 28.5427 30.6018 27.512 30.7255 27.3939C31.0874 27.0509 31.0865 26.5018 30.7312 26.1536C30.374 25.8044 29.7843 25.7946 29.4112 26.1269Z" fill="white" stroke="white"></path>
  <path d="M31.0038 40.2138C30.5575 39.9695 29.9828 40.1108 29.7213 40.5337L27.25 44.5496L21.625 35.4099V32.5134C23.3378 33.4046 25.2512 33.8737 27.25 33.8737C29.2206 33.8737 31.165 33.393 32.875 32.5054V32.9852C32.875 33.4765 33.2941 33.8737 33.8125 33.8737C34.3309 33.8737 34.75 33.4765 34.75 32.9852V31.2793C37.0759 29.4428 38.5722 26.8076 38.86 23.9716L39.2641 20.3564L41.9688 11.6742C42.6287 9.56492 42.1244 7.31441 40.6159 5.65118C38.6781 3.5295 35.4644 1 31.15 1C29.7972 1 28.7013 1.19724 27.8894 1.5864C27.4816 1.7863 27.01 1.78453 26.5956 1.58462C25.7894 1.19724 24.6972 1 23.35 1C19.0928 1 15.9222 3.44953 14.0116 5.50369C12.4187 7.22023 11.8609 9.52494 12.5228 11.6733L15.2275 20.3564L15.6297 23.9627C15.9053 26.677 17.2459 29.1878 19.3994 31.0288C19.5109 31.1247 19.6319 31.2091 19.75 31.2998V35.0189L14.1091 36.8918C14.095 36.8963 14.0819 36.8998 14.0687 36.9052L9.58844 38.3925C7.465 39.0961 5.5825 40.3196 4.13125 41.9215C4.13031 41.9224 4.12844 41.9224 4.1275 41.9242C4.12562 41.9259 4.12562 41.9277 4.12375 41.9295C4.105 41.9499 4.0825 41.9668 4.06469 41.9881C2.0875 44.1933 1 46.992 1 49.8663V56.9741C1 57.4654 1.41906 57.8626 1.9375 57.8626H30.0625C30.5809 57.8626 31 57.4654 31 56.9741C31 56.4828 30.5809 56.0856 30.0625 56.0856H28.1875V46.5531L31.3412 41.4293C31.6019 41.0046 31.45 40.4608 31.0038 40.2138ZM15.4187 6.67915C17.0744 4.89864 19.7931 2.77696 23.35 2.77696C24.6588 2.77696 25.375 2.99019 25.7481 3.16877C26.7063 3.63078 27.8003 3.62901 28.7425 3.16877C29.1147 2.99019 29.8347 2.77696 31.15 2.77696C34.7556 2.77696 37.5166 4.97238 39.1947 6.81153C40.2841 8.01364 40.6487 9.64222 40.1697 11.1704L37.7875 18.8193C35.6134 17.1765 35.9528 14.3343 35.9697 14.2028C36.0053 13.9487 35.9228 13.6937 35.7456 13.5009C35.5675 13.309 35.3106 13.1988 35.0406 13.1988C29.8872 13.1988 28.1472 10.297 28.0788 10.1798C27.9166 9.88922 27.5969 9.70708 27.25 9.70708C26.9031 9.70708 26.5834 9.88922 26.4212 10.1798C26.4034 10.21 24.6747 13.1988 19.4491 13.1988C19.1809 13.1988 18.9241 13.3099 18.7469 13.5009C18.5697 13.691 18.4862 13.9469 18.5191 14.1992C18.5369 14.3343 18.8772 17.1774 16.7022 18.8193L14.3209 11.1731C13.8419 9.61557 14.2525 7.93546 15.4187 6.67915ZM17.4944 23.785L17.1456 20.6567C19.6403 19.2289 20.3819 16.6994 20.4278 14.9455C24.0963 14.7065 26.2075 13.1544 27.25 12.0713C28.2906 13.1544 30.4 14.7074 34.0628 14.9455C34.1087 16.6994 34.8503 19.2298 37.3459 20.6567L36.9953 23.7939C36.7412 26.2994 35.3734 28.6219 33.2397 30.1687C31.5409 31.4117 29.4147 32.0967 27.25 32.0967C25.0581 32.0967 22.9863 31.4321 21.2491 30.1678C21.0484 30.0257 20.8469 29.8746 20.6594 29.7129C18.85 28.1661 17.7259 26.064 17.4944 23.785ZM20.2675 36.7319L25.8316 45.7722L21.4403 46.9618L20.6753 42.6127C20.6434 42.4297 20.5516 42.2609 20.4137 42.1303L16.1566 38.0957L20.2675 36.7319ZM2.875 49.8663C2.875 47.7561 3.56688 45.6966 4.83344 43.9606C6.20781 45.5323 7.5625 47.8192 7.5625 50.7547V56.0856H2.875V49.8663ZM21.625 56.0856H14.125V54.3087H21.625V56.0856ZM23.5 56.0856V53.4202C23.5 52.9289 23.0809 52.5317 22.5625 52.5317H13.1875C12.6691 52.5317 12.25 52.9289 12.25 53.4202V56.0856H9.4375V50.7547C9.4375 47.1466 7.72094 44.3995 6.06156 42.5816C7.22125 41.4657 8.62937 40.5932 10.2081 40.0699L14.1925 38.7479L18.8753 43.1858L19.7631 48.2359C19.8072 48.4856 19.9609 48.7059 20.1869 48.8419C20.5225 49.0124 20.8609 48.968 20.9453 48.9449L26.3125 47.4905V56.0856H23.5Z" fill="white" stroke="white"></path>
  <path d="M17.9467 9.53992C18.6704 8.2925 20.7067 6.43736 23.3504 6.43736C23.8688 6.43736 24.2879 6.04021 24.2879 5.54888C24.2879 5.05755 23.8688 4.6604 23.3504 4.6604C20.1142 4.6604 17.4292 6.74566 16.3042 8.68254C16.0538 9.11256 16.2198 9.65365 16.6735 9.88909C16.817 9.96372 16.9717 9.99926 17.1245 9.99926C17.4554 10.0002 17.777 9.83401 17.9467 9.53992Z" fill="white" stroke="white"></path>
  <path d="M19.4146 10.089C19.1652 10.519 19.3321 11.0592 19.7868 11.2938C19.9293 11.3684 20.083 11.4031 20.2358 11.4031C20.5677 11.4031 20.8883 11.236 21.059 10.9402C21.4199 10.3156 22.4896 9.38621 23.9596 9.38621C24.478 9.38621 24.8971 8.98906 24.8971 8.49773C24.8971 8.0064 24.478 7.60925 23.9596 7.60925C21.8193 7.61014 20.1027 8.89577 19.4146 10.089Z" fill="white" stroke="white"></path>
  <path d="M23.9688 20.5464C24.7454 20.5464 25.375 19.9497 25.375 19.2137C25.375 18.4777 24.7454 17.881 23.9688 17.881C23.1921 17.881 22.5625 18.4777 22.5625 19.2137C22.5625 19.9497 23.1921 20.5464 23.9688 20.5464Z" fill="white" stroke="white"></path>
  <path d="M30.5312 20.5464C31.3079 20.5464 31.9375 19.9497 31.9375 19.2137C31.9375 18.4777 31.3079 17.881 30.5312 17.881C29.7546 17.881 29.125 18.4777 29.125 19.2137C29.125 19.9497 29.7546 20.5464 30.5312 20.5464Z" fill="white" stroke="white"></path>
</svg>
