<?xml version="1.0" encoding="UTF-8"?>
<svg xmlns="http://www.w3.org/2000/svg" width="62" height="59" viewBox="0 0 62 59" fill="none">
  <path d="M60 57.8626H36C35.448 57.8626 35 57.438 35 56.9149C35 56.3917 35.448 55.9672 36 55.9672H59V11.4248C59 9.85732 57.654 8.5817 56 8.5817H46C45.448 8.5817 45 8.15712 45 7.63399C45 7.11085 45.448 6.68628 46 6.68628H56C58.756 6.68628 61 8.81294 61 11.4248V56.9149C61 57.438 60.552 57.8626 60 57.8626Z" fill="white" stroke="white"></path>
  <path d="M44 57.8626H18C17.448 57.8626 17 57.438 17 56.9149C17 56.3917 17.448 55.9672 18 55.9672H43V34.1699C43 34.0618 43.02 33.9538 43.058 33.8514L52.582 8.5817H26.706L24.086 15.5341C23.9 16.0269 23.326 16.2847 22.808 16.1084C22.288 15.9321 22.016 15.39 22.202 14.8972L25.058 7.31556C25.2 6.93837 25.578 6.68628 26 6.68628H54C54.326 6.68628 54.63 6.83602 54.818 7.08811C55.006 7.3402 55.052 7.66242 54.942 7.95242L45 34.3329V56.9149C45 57.438 44.552 57.8626 44 57.8626Z" fill="white" stroke="white"></path>
  <path d="M26 37.013H24C23.448 37.013 23 36.5884 23 36.0653C23 35.5421 23.448 35.1176 24 35.1176H26C26.552 35.1176 27 35.5421 27 36.0653C27 36.5884 26.552 37.013 26 37.013Z" fill="white" stroke="white"></path>
  <path d="M36 37.013H34C33.448 37.013 33 36.5884 33 36.0653C33 35.5421 33.448 35.1176 34 35.1176H36C36.552 35.1176 37 35.5421 37 36.0653C37 36.5884 36.552 37.013 36 37.013Z" fill="white" stroke="white"></path>
  <path d="M39.7227 33.2221H21.7227C21.1707 33.2221 20.7227 32.7976 20.7227 32.2744C20.7227 31.7513 21.1707 31.3267 21.7227 31.3267H39.0167L46.1627 12.3725H30.2867L26.9427 21.2393C26.7567 21.7302 26.1867 21.9918 25.6647 21.8117C25.1447 21.6354 24.8727 21.0934 25.0607 20.6005L28.6407 11.1045C28.7827 10.7292 29.1607 10.4771 29.5827 10.4771H47.5827C47.9087 10.4771 48.2127 10.6268 48.4007 10.8789C48.5887 11.131 48.6347 11.4533 48.5247 11.7451L40.6647 32.5948C40.5227 32.9701 40.1447 33.2221 39.7227 33.2221Z" fill="white" stroke="white"></path>
  <path d="M12 12.3725C8.692 12.3725 6 9.82128 6 6.68626C6 3.55123 8.692 1 12 1C15.308 1 18 3.55123 18 6.68626C18 9.82128 15.308 12.3725 12 12.3725ZM12 2.89542C9.794 2.89542 8 4.59561 8 6.68626C8 8.7769 9.794 10.4771 12 10.4771C14.206 10.4771 16 8.7769 16 6.68626C16 4.59561 14.206 2.89542 12 2.89542Z" fill="white" stroke="white"></path>
  <path d="M12 57.8625C11.448 57.8625 11 57.438 11 56.9148V37.9606C11 37.4375 11.448 37.0129 12 37.0129C12.552 37.0129 13 37.4375 13 37.9606V56.9148C13 57.438 12.552 57.8625 12 57.8625Z" fill="white" stroke="white"></path>
  <path d="M18 57.8626C17.448 57.8626 17 57.438 17 56.9149V22.7973C17 22.2742 17.448 21.8496 18 21.8496C18.552 21.8496 19 22.2742 19 22.7973V24.8823C19.088 26.3474 20.408 27.5359 22 27.5359H28C28.552 27.5359 29 27.1113 29 26.5882C29 26.065 28.552 25.6405 28 25.6405H22C21.448 25.6405 21 25.2159 21 24.6927V20.9019C21 18.29 18.756 16.1634 16 16.1634H8C5.244 16.1634 3 18.29 3 20.9019V34.1698C3 34.693 3.448 35.1176 4 35.1176C4.552 35.1176 5 34.693 5 34.1698C5 33.6467 5.448 33.2221 6 33.2221C6.552 33.2221 7 33.6467 7 34.1698V56.9149C7 57.438 6.552 57.8626 6 57.8626C5.448 57.8626 5 57.438 5 56.9149V36.8519C4.688 36.9561 4.35 37.013 4 37.013C2.346 37.013 1 35.7374 1 34.1698V20.9019C1 17.2438 4.14 14.2679 8 14.2679H16C19.86 14.2679 23 17.2438 23 20.9019V23.745H28C29.654 23.745 31 25.0207 31 26.5882C31 28.1557 29.654 29.4313 28 29.4313H22C20.878 29.4313 19.838 29.0769 19 28.4798V56.9149C19 57.438 18.552 57.8626 18 57.8626Z" fill="white" stroke="white"></path>
  <path d="M12 57.8625C11.448 57.8625 11 57.438 11 56.9148V37.9606C11 37.4375 11.448 37.0129 12 37.0129C12.552 37.0129 13 37.4375 13 37.9606V56.9148C13 57.438 12.552 57.8625 12 57.8625Z" fill="white" stroke="white"></path>
  <path d="M6 35.1175C5.448 35.1175 5 34.693 5 34.1698V22.7973C5 22.2742 5.448 21.8496 6 21.8496C6.552 21.8496 7 22.2742 7 22.7973V34.1698C7 34.693 6.552 35.1175 6 35.1175Z" fill="white" stroke="white"></path>
</svg>
