<?xml version="1.0" encoding="UTF-8"?>
<svg xmlns="http://www.w3.org/2000/svg" width="63" height="61" viewBox="0 0 63 61" fill="none">
  <path fill-rule="evenodd" clip-rule="evenodd" d="M31.2676 2L33.6533 6.36155L38.7676 7.16422L35.1278 10.6623L35.9028 15.5199L31.2676 13.3204L26.6323 15.5199L27.4072 10.6623L23.7676 7.16422L28.8817 6.36155L31.2676 2Z" stroke="white" stroke-width="3" stroke-miterlimit="22.9256" stroke-linecap="round" stroke-linejoin="round"></path>
  <path fill-rule="evenodd" clip-rule="evenodd" d="M9.50001 15.5566L11.8858 19.9181L17 20.7208L13.3603 24.219L14.1353 29.0766L9.50001 26.877L4.86476 29.0766L5.63964 24.219L2 20.7208L7.11416 19.9181L9.50001 15.5566Z" stroke="white" stroke-width="3" stroke-miterlimit="22.9256" stroke-linecap="round" stroke-linejoin="round"></path>
  <path fill-rule="evenodd" clip-rule="evenodd" d="M53.0371 15.5566L50.6513 19.9181L45.5371 20.7208L49.1768 24.219L48.4019 29.0766L53.0371 26.877L57.6724 29.0766L56.8974 24.219L60.5371 20.7208L55.4229 19.9181L53.0371 15.5566Z" stroke="white" stroke-width="3" stroke-miterlimit="22.9256" stroke-linecap="round" stroke-linejoin="round"></path>
  <path fill-rule="evenodd" clip-rule="evenodd" d="M31.2727 39.76C40.5107 39.76 48.0689 46.9229 48.0689 55.6778V58.8626H14.4766V55.6778C14.4766 46.9229 22.0347 39.76 31.2727 39.76Z" stroke="white" stroke-width="3" stroke-miterlimit="22.9256" stroke-linecap="round" stroke-linejoin="round"></path>
  <path d="M38.2494 41.213L31.2729 47.8247L24.3262 41.2412" stroke="white" stroke-width="3" stroke-miterlimit="22.9256" stroke-linecap="round" stroke-linejoin="round"></path>
  <path d="M31.2715 47.9863V58.6571" stroke="white" stroke-width="3" stroke-miterlimit="22.9256" stroke-linecap="round" stroke-linejoin="round"></path>
  <path d="M37.3691 50.2183H40.393" stroke="white" stroke-width="3" stroke-miterlimit="22.9256" stroke-linecap="round" stroke-linejoin="round"></path>
  <path d="M32.7847 39.6446C37.932 38.8529 41.4275 34.2566 40.5921 29.3784C39.7568 24.5003 34.9068 21.1875 29.7595 21.9792C24.6122 22.7709 21.1167 27.3673 21.952 32.2454C22.7874 37.1236 27.6373 40.4363 32.7847 39.6446Z" stroke="white" stroke-width="3" stroke-miterlimit="22.9256" stroke-linecap="round" stroke-linejoin="round"></path>
</svg>
