<?xml version="1.0" encoding="UTF-8"?>
<svg xmlns="http://www.w3.org/2000/svg" width="60" height="60" viewBox="0 0 60 60" fill="none">
  <g clip-path="url(#clip0_1383_47288)">
    <path d="M55.9358 20.326H55.0154V14.1822C55.0154 12.5 55.0153 12.1387 51.9622 12.1387H32.1789C30.4954 12.1387 30.4954 12.1387 30.4954 15.1954C30.4954 15.2015 30.4953 15.2076 30.4955 15.2134L30.4957 21.5371C30.4957 22.1842 31.0203 22.709 31.6676 22.709H33.7598C34.7077 22.709 35.4789 23.4786 35.4789 24.4245C35.4789 25.3704 34.7077 26.14 33.7598 26.14H31.6676C31.0203 26.14 30.4957 26.6648 30.4957 27.3119V33.6142C30.4957 33.621 30.4957 33.6278 30.4958 33.6346C30.5007 33.9157 30.5443 34.1881 30.6216 34.4462C30.356 34.3705 30.0758 34.3299 29.7862 34.3298H23.4703C22.8231 34.3298 22.2984 34.8545 22.2984 35.5016V37.5889C22.2984 38.5347 21.5272 39.3044 20.5794 39.3044C19.6316 39.3044 18.8605 38.5348 18.8605 37.5889V35.5016C18.8605 34.8545 18.3359 34.3298 17.6886 34.3298L9.8823 34.3292C8.33203 34.3298 8.33977 34.2907 8.33977 37.0328C8.33461 37.0776 8.33203 37.1226 8.33203 37.1675V55.9954C8.33203 56.0405 8.33461 56.0855 8.33977 56.1302C8.33977 58.7889 8.33977 58.8282 11.3726 58.8282H29.7864C30.5084 58.8282 31.1726 58.5764 31.6958 58.1563C32.2114 58.5525 32.8549 58.7889 33.5486 58.7889H51.9623C55.0153 58.7889 55.0155 58.7889 55.0155 55.738V40.9429C55.0155 40.2958 54.4909 39.771 53.8437 39.771C53.1964 39.771 52.6718 40.2958 52.6718 40.9429V55.738C52.6718 56.1279 52.3535 56.4452 51.9623 56.4452H33.5484C33.1666 56.4452 32.8502 56.1379 32.8395 55.7588V50.6409H33.7598C36.0001 50.6409 37.8226 48.8199 37.8226 46.5816C37.8226 44.3433 36.0001 42.5223 33.7598 42.5223H32.8395V37.3859C32.8395 37.3717 32.8393 37.3577 32.8391 37.3436C32.8407 36.9522 33.1583 36.6344 33.5484 36.6344H38.6925V37.5496C38.6925 39.788 40.515 41.609 42.7553 41.609C44.9955 41.609 46.818 39.788 46.818 37.5496V36.6344H51.9621C52.3533 36.6344 52.6716 36.9539 52.6716 37.3466V41.5976C52.6716 42.2447 53.1962 42.7695 53.8434 42.7695C54.4907 42.7695 55.0153 42.2447 55.0153 41.5976V37.3466C55.0153 36.6366 54.7721 35.9823 54.3648 35.463C54.7721 34.9439 55.0153 34.2903 55.0153 33.5808V28.4444H55.9357C58.176 28.4444 59.9985 26.6234 59.9985 24.3851C59.9985 22.1468 58.1761 20.326 55.9358 20.326ZM33.7598 44.8661C34.7077 44.8661 35.4789 45.6357 35.4789 46.5816C35.4789 47.5275 34.7077 48.2971 33.7598 48.2971H31.6676C31.0203 48.2971 30.4957 48.8219 30.4957 49.469V55.7773C30.4957 56.1672 30.1774 56.4844 29.7862 56.4844H11.3726C11.0296 56.4844 10.7386 56.2416 10.6758 55.9116V37.2513C10.7387 36.9186 11.0297 36.6736 11.3726 36.6735H16.5168V37.5889C16.5168 39.8271 18.3393 41.6481 20.5794 41.6481C22.8197 41.6481 24.6422 39.8271 24.6422 37.5889V36.6735H29.7865C30.173 36.6736 30.4882 36.9858 30.4956 37.3722L30.4957 43.6942C30.4957 44.3413 31.0203 44.8661 31.6676 44.8661H33.7598ZM55.9358 26.1007H53.8435C53.1963 26.1007 52.6717 26.6255 52.6717 27.2726V33.5809C52.6717 33.9723 52.3534 34.2907 51.9622 34.2907H45.6463C44.9991 34.2907 44.4744 34.8155 44.4744 35.4626V37.5497C44.4744 38.4957 43.7032 39.2654 42.7554 39.2654C41.8076 39.2654 41.0364 38.4958 41.0364 37.5497V35.4626C41.0364 34.8155 40.5117 34.2907 39.8645 34.2907H33.5486C33.1668 34.2907 32.8504 33.9823 32.8396 33.6017V28.4837H33.76C36.0002 28.4837 37.8227 26.6628 37.8227 24.4245C37.8227 22.1862 36.0002 20.3652 33.76 20.3652H32.8396V15.2288L32.8392 15.1895C32.8392 14.7996 33.1574 14.4824 33.5486 14.4824H51.9623C52.3535 14.4824 52.6718 14.7996 52.6718 15.1895V21.4979C52.6718 22.145 53.1964 22.6697 53.8437 22.6697H55.9359C56.8837 22.6697 57.655 23.4392 57.655 24.3852C57.6548 25.3311 56.8836 26.1007 55.9358 26.1007Z" fill="white" stroke="white" stroke-width="0.5"></path>
    <path d="M12.0512 15.753C11.7668 15.753 11.4907 15.6494 11.2755 15.4596L8.85324 13.3206C8.36808 12.8923 8.32215 12.1516 8.75047 11.6665C9.1789 11.1815 9.91953 11.1356 10.4046 11.5638L11.8869 12.8728L15.0666 8.73908C15.4613 8.22604 16.197 8.13006 16.71 8.52475C17.2229 8.91932 17.3189 9.65514 16.9243 10.168L12.98 15.2956C12.7822 15.5528 12.4864 15.7165 12.1633 15.7476C12.1259 15.7511 12.0884 15.753 12.0512 15.753V15.753Z" fill="white" stroke="white" stroke-width="0.5"></path>
    <path d="M12.2475 29.4702C10.0072 29.4702 8.18473 27.6492 8.18473 25.4108V24.4956H3.04055C1.4898 24.4956 0.185977 23.3346 0.00773438 21.795C0.00257813 21.7505 0 21.7055 0 21.6605V2.83266C0 2.78754 0.00257813 2.74254 0.00773438 2.69789C0.185859 1.1598 1.48969 0 3.04055 0H21.4543C23.1379 0 24.5074 1.36863 24.5074 3.05086V8.1873H25.4278C27.668 8.1873 29.4905 10.0083 29.4905 12.2466C29.4905 14.4848 27.668 16.3058 25.4278 16.3058H24.5074V21.4423C24.5074 23.1259 23.1377 24.4958 21.4543 24.4958H16.3102V25.4111C16.3102 27.6492 14.4877 29.4702 12.2475 29.4702V29.4702ZM2.34375 21.5767C2.40668 21.9081 2.69754 22.152 3.04055 22.152H9.35649C10.0037 22.152 10.5284 22.6767 10.5284 23.3238V25.4109C10.5284 26.3569 11.2996 27.1266 12.2474 27.1266C13.1952 27.1266 13.9663 26.357 13.9663 25.4109V23.3238C13.9663 22.6767 14.4909 22.152 15.1382 22.152H21.4542C21.8454 22.152 22.1636 21.8336 22.1636 21.4421V15.1338C22.1636 14.4867 22.6882 13.962 23.3354 13.962H25.4277C26.3755 13.962 27.1466 13.1925 27.1466 12.2464C27.1466 11.3006 26.3755 10.5309 25.4277 10.5309H23.3355C22.6883 10.5309 22.1637 10.0062 22.1637 9.35906V3.05086C22.1637 2.66098 21.8455 2.34375 21.4543 2.34375H3.04055C2.69742 2.34375 2.40656 2.58656 2.34375 2.91656V21.5767Z" fill="white" stroke="white" stroke-width="0.5"></path>
  </g>
  <defs>
    <clipPath id="clip0_1383_47288">
      <rect width="60" height="60" fill="white"></rect>
    </clipPath>
  </defs>
</svg>
