<?xml version="1.0" encoding="UTF-8"?>
<svg xmlns="http://www.w3.org/2000/svg" width="60" height="60" viewBox="0 0 60 60" fill="none">
  <path d="M17.6036 24.619C20.1541 30.8184 24.3274 35.8251 23.9817 35.2747C24.3586 36.5591 25.2676 41.3398 23.9482 43.0583C22.7148 44.6649 15.9652 54.3461 15.7578 57.5" stroke="white" stroke-width="3" stroke-miterlimit="10" stroke-linecap="round" stroke-linejoin="round"></path>
  <path d="M42.2167 57.5C41.1405 54.6582 38.3691 48.0918 38.1103 47.0905C37.6944 45.4749 38.8698 44.5105 38.8866 43.0672C38.8988 41.9876 38.01 40.6316 38.3691 38.8717C38.6345 37.5738 44.3156 39.5105 45.9628 38.0661C47.5576 36.6665 46.187 33.9735 46.3364 33.7508C46.4513 33.5785 47.1606 33.4946 47.1796 32.6712C47.1985 31.8276 46.5595 31.6564 46.5472 31.4975C46.535 31.3386 47.3312 31.069 47.0937 30.1437C46.9877 29.7343 46.5974 28.6166 46.661 28.0952C46.6877 27.8804 48.7956 27.67 49.2684 26.4181C49.6253 25.4749 46.7825 22.124 45.7766 20.7233C45.3472 20.1247 46.5037 18.7955 46.3376 17.4216C46.1257 15.6673 44.9781 11.8287 44.9959 11.7951C46.8561 8.21263 45.5279 3.34689 43.8963 3.17011C36.5992 2.37687 29.8207 2.11171 25.0039 3.36591" stroke="white" stroke-width="3" stroke-miterlimit="10" stroke-linecap="round" stroke-linejoin="round"></path>
  <path d="M26.2022 7.53014C26.2078 7.52119 27.2773 6.44712 27.284 6.43929L29.6985 8.86153C29.6907 8.86936 28.6189 9.94119 28.6111 9.94679L29.9149 13.1052C29.9249 13.103 31.4383 13.1019 31.4494 13.1019V16.5277C31.4383 16.5277 29.9249 16.5254 29.9149 16.5243L28.6111 19.6828C28.62 19.6884 29.6907 20.7613 29.6985 20.768L27.284 23.1903C27.2762 23.1824 26.2078 22.1072 26.2022 22.0994L23.0538 23.4073C23.0561 23.4174 23.0572 24.9356 23.0572 24.9468H19.6423C19.6423 24.9356 19.6445 23.4174 19.6456 23.4073L16.4973 22.0994C16.4917 22.1084 15.4222 23.1824 15.4155 23.1903L13.0009 20.768C13.0088 20.7602 14.0805 19.6884 14.0883 19.6828L12.7846 16.5243C12.7745 16.5266 11.2612 16.5277 11.25 16.5277V13.1019C11.2612 13.1019 12.7745 13.1041 12.7846 13.1052L14.0883 9.94679C14.0794 9.94119 13.0088 8.86824 13.0009 8.86153L15.4155 6.43929C15.4233 6.44712 16.4917 7.5223 16.4973 7.53014L19.6456 6.22224C19.6434 6.21217 19.6423 4.69393 19.6423 4.68274H23.0572C23.0572 4.69393 23.0549 6.21217 23.0538 6.22224L26.2022 7.53014ZM17.5534 11.0063C15.4567 13.1097 15.4567 16.521 17.5534 18.6255C19.6501 20.7289 23.0505 20.7289 25.1483 18.6255C27.2449 16.5221 27.2449 13.1108 25.1483 11.0063C23.0505 8.90181 19.6501 8.90181 17.5534 11.0063Z" stroke="white" stroke-width="2" stroke-miterlimit="10" stroke-linecap="round" stroke-linejoin="round"></path>
  <path d="M41.3707 17.8288C41.3762 17.8255 42.2216 17.5704 42.2272 17.5681L42.8841 19.7655C42.8785 19.7677 42.032 20.0206 42.0264 20.0217L41.6696 22.2817C41.6751 22.284 42.4012 22.7874 42.4067 22.7908L41.1041 24.676C41.0985 24.6726 40.3736 24.1669 40.3703 24.1625L38.3862 25.2914C38.3885 25.2969 38.4487 26.1808 38.4487 26.1875L36.168 26.3419C36.168 26.3352 36.11 25.4513 36.11 25.4458L33.9933 24.5932C33.9899 24.5977 33.3386 25.1963 33.3342 25.2007L31.7918 23.508C31.7962 23.5035 32.4487 22.9071 32.4542 22.9038L31.7985 20.712C31.7929 20.712 30.9196 20.5744 30.9141 20.5744L31.2721 18.3088C31.2788 18.3099 32.1498 18.4498 32.1553 18.452L33.4546 16.5713C33.4501 16.5668 33.0141 15.7971 33.0107 15.7915L34.9992 14.6603C35.0026 14.6659 35.4364 15.4368 35.4386 15.4424L37.7149 15.2891C37.716 15.2835 38.0439 14.4601 38.0461 14.4545L40.1684 15.3092C40.1662 15.3148 39.8361 16.1372 39.8327 16.1416L41.3707 17.8288ZM36.2505 18.1544C35.0327 18.5214 34.3423 19.808 34.7081 21.0298C35.074 22.2515 36.3565 22.9441 37.5743 22.5771C38.7922 22.2101 39.4825 20.9235 39.1167 19.7017C38.7509 18.48 37.4684 17.7874 36.2505 18.1544Z" stroke="white" stroke-width="2" stroke-miterlimit="10" stroke-linecap="round" stroke-linejoin="round"></path>
  <path d="M27.6058 25.1213C27.6058 25.1157 27.753 24.3706 27.7541 24.365L30.114 24.9423C30.1129 24.9479 29.901 25.6774 29.8988 25.6818L31.4244 27.4876C31.4289 27.4854 32.1817 27.3959 32.1873 27.3948L32.369 29.8248C32.3635 29.8248 31.6062 29.8483 31.6018 29.8472L30.3616 31.8611C30.3649 31.8644 30.6828 32.5548 30.685 32.5603L28.4367 33.4845C28.4344 33.4789 28.1779 32.764 28.1779 32.7595L25.885 32.199C25.8827 32.2034 25.3262 32.7192 25.3229 32.7237L23.7515 30.8653C23.756 30.862 24.3548 30.3965 24.3593 30.3943L24.1831 28.0336C24.1786 28.0325 23.5173 27.661 23.5117 27.6588L24.7887 25.5856C24.7931 25.589 25.4199 26.0164 25.4233 26.0197L27.6058 25.1213ZM26.4013 28.5762C26.2006 29.4019 26.7047 30.2343 27.5289 30.4368C28.3519 30.6382 29.1817 30.1325 29.3835 29.3057C29.5843 28.48 29.0802 27.6465 28.256 27.4451C27.4318 27.2448 26.6021 27.7505 26.4013 28.5762Z" stroke="white" stroke-width="2" stroke-miterlimit="10" stroke-linecap="round" stroke-linejoin="round"></path>
</svg>
