<?xml version="1.0" encoding="UTF-8"?>
<svg xmlns="http://www.w3.org/2000/svg" width="60" height="62" viewBox="0 0 60 62" fill="none">
  <path d="M23.0586 35.7207V22.7841C23.0586 21.7991 23.8956 21 24.9273 21H27.3005C28.3322 21 29.1692 21.7991 29.1692 22.7841V33.0072" stroke="white" stroke-width="3" stroke-miterlimit="10"></path>
  <path d="M28.9805 28.0211H33.2224C34.2541 28.0211 35.0911 28.8202 35.0911 29.8052V37.3148" stroke="white" stroke-width="3" stroke-miterlimit="10"></path>
  <path d="M34.8984 30.1919H39.1403C40.172 30.1919 41.0091 30.991 41.0091 31.976V39.4856" stroke="white" stroke-width="3" stroke-miterlimit="10"></path>
  <path d="M40.8215 32.3627H45.0634C46.0951 32.3627 46.9321 33.1618 46.9321 34.1468V41.6564V52.3258C46.9321 56.434 43.4377 59.7608 39.1361 59.7499L27.1209 59.7201C22.8321 59.7092 19.3633 56.3879 19.3633 52.2946V37.2659C19.3633 36.281 20.2003 35.4818 21.232 35.4818H23.6052C24.6369 35.4818 25.4739 36.281 25.4739 37.2659V48.0996" stroke="white" stroke-width="3" stroke-miterlimit="10"></path>
  <path d="M33.5712 23.8394C34.1907 23.4813 34.4039 22.6883 34.0458 22.0673L33.7417 21.5401C33.6138 21.3184 33.6436 21.0399 33.8156 20.8523C34.8075 19.7695 35.5734 18.4749 36.0396 17.0453C36.1191 16.8037 36.3437 16.6403 36.598 16.6403H37.1793C37.8955 16.6403 38.4767 16.059 38.4767 15.3428V12.3941C38.4767 11.6779 37.8955 11.0966 37.1793 11.0966H36.6449C36.3877 11.0966 36.1604 10.929 36.085 10.6845C35.6303 9.2265 34.8643 7.9049 33.8653 6.79931C33.6948 6.61031 33.6649 6.3332 33.7928 6.11151L34.0472 5.66955C34.4053 5.04997 34.1922 4.25559 33.5726 3.89747L31.0175 2.42382C30.3979 2.06571 29.6035 2.27887 29.2454 2.89846L29.0038 3.31768C28.8759 3.53936 28.6187 3.65305 28.3686 3.59763C27.641 3.43847 26.8864 3.3532 26.1119 3.3532C25.3374 3.3532 24.5829 3.43847 23.8567 3.59905C23.6066 3.65447 23.3494 3.54079 23.2215 3.3191L22.9799 2.89988C22.6218 2.28029 21.8288 2.06713 21.2078 2.42524L18.6541 3.8989C18.0345 4.25701 17.8214 5.04997 18.1795 5.67098L18.4339 6.11293C18.5618 6.3332 18.5319 6.61173 18.3614 6.80073C17.3624 7.90633 16.5964 9.22793 16.1417 10.6859C16.0649 10.9318 15.8376 11.0981 15.5818 11.0981H15.0474C14.3312 11.0981 13.75 11.6793 13.75 12.3955V15.3442C13.75 16.0605 14.3312 16.6417 15.0474 16.6417H15.6287C15.883 16.6417 16.1076 16.8051 16.1871 17.0467C16.6547 18.4763 17.4192 19.7695 18.4111 20.8537C18.5831 21.0427 18.6129 21.3213 18.485 21.5415L18.1809 22.0688C17.8228 22.6883 18.036 23.4827 18.6556 23.8408" stroke="white" stroke-width="3" stroke-miterlimit="10"></path>
  <path d="M21.4234 17.4418C20.6091 16.3745 20.1487 15.0231 20.2226 13.5608C20.3746 10.5652 22.8089 8.12947 25.806 7.97742C29.3047 7.79978 32.1795 10.6746 32.0019 14.1733C31.945 15.3059 31.5599 16.3575 30.9432 17.2371" stroke="white" stroke-width="3" stroke-miterlimit="10"></path>
</svg>
