<?xml version="1.0" encoding="UTF-8"?>
<svg xmlns="http://www.w3.org/2000/svg" width="60" height="61" viewBox="0 0 60 61" fill="none">
  <path d="M13.625 34.2338V30.3638C13.625 29.2105 13.9114 28.2895 14.43 27.5465C14.9872 26.7492 15.6993 26.1533 16.5739 25.743C18.8959 24.6982 21.1018 23.9242 23.207 23.4056C25.3046 22.8947 27.3944 22.6316 29.4996 22.6316C29.9563 22.6316 30.4129 22.6471 30.8696 22.6703" stroke="white" stroke-width="3"></path>
  <path d="M28.5156 22.6626C28.9723 22.6394 29.4289 22.6239 29.8856 22.6239C31.9909 22.6239 34.0806 22.8793 36.1782 23.3979C38.2834 23.9165 40.4893 24.6905 42.8113 25.7354C43.6859 26.1456 44.398 26.7493 44.9553 27.5388C45.4738 28.2818 45.7602 29.2029 45.7602 30.3561V34.2261" stroke="white" stroke-width="3"></path>
  <path d="M24.184 4.54334C25.5307 3.18885 27.2722 2.5 29.5013 2.5C31.7304 2.5 33.4642 3.19659 34.8186 4.54334C36.1654 5.89009 36.862 7.62384 36.862 9.85294C36.862 12.082 36.1654 13.8158 34.8186 15.1625C33.4719 16.5093 31.7304 17.2136 29.5013 17.2136C27.2722 17.2136 25.5385 16.517 24.184 15.1703C22.8372 13.8235 22.1406 12.0898 22.1406 9.86068C22.1406 7.63158 22.8372 5.89783 24.184 4.54334Z" stroke="white" stroke-width="3"></path>
  <path d="M17.8909 53.5449L14.7872 51.9659L9.50852 54.7446L10.5147 48.87L6.25 44.7136L12.1478 43.8545L14.7872 38.5139" stroke="white" stroke-width="3"></path>
  <path d="M41.4883 53.5449L44.592 51.9659L49.8629 54.7446L48.8567 48.87L53.1214 44.7136L47.2236 43.8545L44.592 38.5139" stroke="white" stroke-width="3"></path>
  <path d="M29.6858 35.7585L33.223 42.9102L41.1177 44.0635L35.4056 49.6363L36.7524 57.5L29.6858 53.7849L22.6192 57.5L23.9737 49.6363L18.2539 44.0635L26.1564 42.9102L29.6858 35.7585Z" stroke="white" stroke-width="3"></path>
</svg>
